<ttFont>
          <CharString index="0">
            rmoveto
            -370 190 -220 348 177 171 53 61 75 vhcurveto
            -51 177 rlineto
            -33 -60 -152 -26 -81 hhcurveto
            -176 -116 85 194 -13 hvcurveto
            675 hlineto
            8 51 3 77 86 vvcurveto
            -4 332 -213 117 -236 -2 rrcurveto
            -350 -2 -195 -248 -332 vvcurveto
            318 94 rmoveto
            202 22 80 64 115 hhcurveto
            140 43 -99 -167 -10 hvcurveto
            return
          </CharString>
          <CharString index="1">
            rmoveto
            -9 -468 264 -326 438 9 406 8 290 245 10 526 9 469 -264 318 -421 -12 -412 -12 -301 -230 -10 -527 rrcurveto
            700 -548 rmoveto
            -249 -122 237 300 391 175 147 212 238 116 -224 -299 -381 -144 -171 -226 hvcurveto
            return
          </CharString>
          <CharString index="2">
            -184 rmoveto
            -50 vlineto
            28 -13 34 -54 -53 vvcurveto
            -74 -12 -42 -18 -20 vhcurveto
            -26 vlineto
            111 -44 rlineto
            42 15 108 102 162 vvcurveto
            115 -67 70 -42 10 vhcurveto
            return
          </CharString>
          <CharString index="3">
            274 173 115 235 167 -88 97 -232 79 hvcurveto
            -167 57 -57 33 1 71 rrcurveto
            64 1 57 26 135 hhcurveto
            96 116 -37 -40 44 hvcurveto
            34 240 rlineto
            24 -41 -118 41 -162 hhcurveto
            -264 -195 -112 -216 -1 hvcurveto
            -1 -165 79 -117 209 -69 rrcurveto
            165 -54 82 -48 -66 vvcurveto
            -70 -57 -26 -122 1 vhcurveto
            -146 -148 63 27 -33 hvcurveto
            return
          </CharString>
          <CharString index="4">
            rmoveto
            -403 -1 153 -266 456 hhcurveto
            410 208 230 426 hvcurveto
            882 -313 -852 vlineto
            -339 -104 -93 -192 -195 -108 77 355 1 vhcurveto
            2 852 rlineto
            -315 hlineto
            return
          </CharString>
          <CharString index="5">
            -185 98 -78 47 109 vvcurveto
            94 59 62 169 152 106 -50 -47 74 vhcurveto
            52 247 rlineto
            35 -54 -147 53 -192 hhcurveto
            -286 -245 -110 -300 -249 198 -135 180 -89 hvcurveto
            234 -116 61 -44 -107 vvcurveto
            -102 -54 -53 -169 -163 -144 49 47 -85 vhcurveto
            return
          </CharString>
          <CharString index="6">
            rmoveto
            -466 264 -303 463 325 129 101 5 91 vhcurveto
            730 -535 -237 vlineto
            233 -12 rlineto
            -305 vlineto
            -22 -59 -78 -16 -118 hhcurveto
            -264 -120 245 307 318 164 188 265 222 101 -35 -46 96 hvcurveto
            10 273 rlineto
            26 -134 -65 34 -231 hhcurveto
            -426 -333 -239 -546 hvcurveto
            return
          </CharString>
          <CharString index="7">
            -78 callsubr
            347 hlineto
            -567 1538 rlineto
            -322 hlineto
            -48 -987 rmoveto
            163 522 44 157 43 -157 165 -522 rlineto
            return
          </CharString>
          <CharString index="8">
            rmoveto
            -326 177 -246 355 144 136 45 68 70 vhcurveto
            -45 185 rlineto
            -25 -46 -98 -22 -104 hhcurveto
            -162 -124 114 246 7 hvcurveto
            229 6 154 77 131 hhcurveto
            106 64 -15 -29 55 hvcurveto
            39 241 rlineto
            28 -38 -115 30 -143 hhcurveto
            -387 -182 -264 -336 hvcurveto
            return
          </CharString>
          <CharString index="9">
            114 24 -133 161 hhcurveto
            154 99 97 131 45 hvcurveto
            -126 108 rlineto
            -51 -37 -51 -60 -67 hhcurveto
            return
          </CharString>
          <CharString index="10">
            -61 callgsubr
            -28 callsubr
            401 -9 callgsubr
            hintmask 1110110000000000
            91 -183 rmoveto
            -215 198 -114 344 -4 vhcurveto
            hintmask 1110100010000000
            310 -4 291 148 270 vvcurveto
            163 -67 182 -372 vhcurveto
            -190 hlineto
            -95 -40 14 66 34 14 35 28 23 hvcurveto
            -4 32 33 -2 35 hhcurveto
            hintmask 1111000100000000
            320 187 129 246 48 -7 43 -13 39 hvcurveto
            189 226 -127 hlineto
            -86 -62 -36 -31 -36 hvcurveto
            hintmask 1110101100000000
            -88 59 -125 26 -148 -2 rrcurveto
            -299 -4 -195 -111 -266 vvcurveto
            -140 90 -115 144 -62 vhcurveto
            -141 -58 -40 -95 -1 -77 -1 -66 25 -72 69 -36 rrcurveto
            hintmask 1110110000000000
            -101 -44 -75 -83 -110 vvcurveto
            hintmask 1110101100000000
            526 783 rmoveto
            -127 -67 69 110 145 92 39 116 128 65 -65 -123 -143 -92 -32 -115 hvcurveto
            -216 -714 rmoveto
            63 19 32 23 21 vhcurveto
            -1 20 20 -1 22 hhcurveto
            163 hlineto
            hintmask 1110100010000000
            228 30 -58 -106 -120 -113 -48 -168 hvcurveto
            hintmask 1110101100000000
            -6 callgsubr
            return
          </CharString>
          <CharString index="11">
            -110 1 79 -83 107 hhcurveto
            113 91 98 115 -2 hvcurveto
            108 -1 -68 84 -116 hhcurveto
            -112 -93 -99 -113 1 hvcurveto
            return
          </CharString>
          <CharString index="12">
            rmoveto
            225 147 176 211 -8 hvcurveto
            -193 hlineto
            -44 -5 -12 -125 -153 hhcurveto
            -157 -8 124 45 -4 hvcurveto
            -196 hlineto
            -211 -8 136 -176 236 hhcurveto
            endchar
          </CharString>
          <CharString index="13">
            104 79 83 102 96 -54 72 -110 -102 -83 -85 -100 -98 65 -70 101 hvcurveto
            return
          </CharString>
          <CharString index="14">
            rmoveto
            222 199 221 -199 165 92 -276 308 rlineto
            -220 hlineto
            return
          </CharString>
          <CharString index="15">
            312 809 hlineto
            69 61 97 25 58 1 rrcurveto
            131 4 37 -64 -188 vvcurveto
            -648 312 715 vlineto
            334 -115 118 -241 -8 vhcurveto
            -140 -4 -154 -79 -77 -58 rrcurveto
            return
          </CharString>
          <CharString index="16">
            rmoveto
            149 137 -117 108 -141 169 -83 142 rlinecurve
            -215 -174 68 -145 255 -199 84 -38 rlinecurve
            endchar
          </CharString>
          <CharString index="17">
            -88 callgsubr
            endchar
          </CharString>
          <CharString index="18">
            -102 callgsubr
            endchar
          </CharString>
          <CharString index="19">
            rmoveto
            304 hlineto
            219 849 45 329 49 -328 214 -850 rlineto
            326 hlineto
            398 1538 rlineto
            -318 hlineto
            -173 -894 -51 -354 -62 354 -234 894 rlineto
            -284 hlineto
            -220 -894 -61 -370 -53 370 -188 894 rlineto
            -319 hlineto
            return
          </CharString>
          <CharString index="20">
            -852 vlineto
            -27 -34 -84 -38 -73 hhcurveto
            -120 -55 35 219 hvcurveto
            663 -8 callgsubr
            return
          </CharString>
          <CharString index="21">
            318 575 hlineto
            86 64 1 3 51 hvcurveto
            147 -2 31 -289 86 -178 30 -64 8 -20 18 -26 rrcurveto
            354 hlineto
            -63 110 -100 173 -60 248 -124 104 rlinecurve
            159 64 94 133 246 vvcurveto
            359 -263 101 -285 vhcurveto
            return
          </CharString>
          <CharString index="22">
            96 594 -106 callgsubr
            return
          </CharString>
          <CharString index="23">
            -81 callsubr
            endchar
          </CharString>
          <CharString index="24">
            251 -675 408 468 241 -468 378 610 244 -928 hlineto
            return
          </CharString>
          <CharString index="25">
            1543 -101 callgsubr
            return
          </CharString>
          <CharString index="26">
            993 -83 callsubr
            return
          </CharString>
          <CharString index="27">
            240 -16 244 -207 -21 694 201 403 17 callsubr
            hintmask 01110110
            -5 callgsubr
            154 hlineto
            92 108 -15 -1 142 hvcurveto
            hintmask 10110110
            469 -4 301 302 519 vvcurveto
            466 -236 271 -510 vhcurveto
            hintmask 10101110
            -166 -114 -16 -89 hhcurveto
            -151 -627 -119 -201 119 hlineto
            321 -448 rmoveto
            448 337 201 -337 vlineto
            hintmask 10110110
            389 -71 callsubr
            hintmask 10101110
            -73 -78 4 14 -53 hvcurveto
            endchar
          </CharString>
          <CharString index="28">
            rmoveto
            -244 130 -201 265 1 vhcurveto
            224 2 205 160 290 vvcurveto
            248 -120 200 -275 -3 vhcurveto
            -224 -2 -205 -161 -290 vvcurveto
            249 10 rmoveto
            153 59 94 106 102 58 -103 -154 -153 -58 -93 -106 -102 -59 105 151 vhcurveto
            return
          </CharString>
          <CharString index="29">
            -15 hmoveto
            342 hlineto
            100 322 rlineto
            560 hlineto
            102 -322 rlineto
            return
          </CharString>
          <CharString index="30">
            520 0 218 1106 221 hstem
            186 329 788 329 vstem
            169 hmoveto
            619 179 hlineto
            -120 72 -153 233 333 vvcurveto
            362 189 145 214 200 185 -147 -360 -333 -124 -233 -120 -72 vhcurveto
            -179 606 218 -313 vlineto
            157 132 118 243 5 251 rrcurveto
            482 9 -294 219 -429 hhcurveto
            -382 -340 -194 -507 -10 hvcurveto
            -5 -252 145 -247 148 -127 rrcurveto
            -305 hlineto
            endchar
          </CharString>
          <CharString index="31">
            1633 -52 callsubr
            hintmask 00100010
            -98 callsubr
            hintmask 00011010
            -103 -29 130 -162 -62 callsubr
            hintmask 11000101
            return
          </CharString>
          <CharString index="32">
            550 -306 rmoveto
            -135 -90 78 254 2 hvcurveto
            253 2 112 122 148 hhcurveto
            68 66 -4 -29 41 hvcurveto
            -614 vlineto
            -32 -47 -81 -28 -86 hhcurveto
            return
          </CharString>
          <CharString index="33">
            95 533 rmoveto
            -370 212 -179 242 186 97 82 53 52 vhcurveto
            -77 vlineto
            -51 30 -7 45 vhcurveto
            212 1678 -312 -438 hlineto
            3 -100 rlineto
            17 -45 -64 15 -78 hhcurveto
            -347 -233 -244 -379 hvcurveto
            return
          </CharString>
          <CharString index="34">
            150 653 -103 callsubr
            return
          </CharString>
          <CharString index="35">
            rmoveto
            77 -168 171 6 289 136 53 281 rlinecurve
            28 145 -9 178 199 vvcurveto
            909 -320 -914 vlineto
            -207 -4 -170 -28 -114 vhcurveto
            -38 -162 -115 -80 -104 -39 rrcurveto
            return
          </CharString>
          <CharString index="36">
            vlineto
            3 37 70 11 62 hhcurveto
            297 143 -135 -396 -379 -163 -158 -242 -2 hvcurveto
            return
          </CharString>
          <CharString index="37">
            201 hmoveto
            320 -48 callsubr
            -320 hlineto
            return
          </CharString>
          <CharString index="38">
            rmoveto
            154 hlineto
            92 108 -15 -1 142 hvcurveto
            hintmask 01100100
            469 -4 301 302 519 vvcurveto
            466 -236 271 -510 vhcurveto
            hintmask 10100101
            -166 -114 -16 -89 hhcurveto
            -151 hlineto
            321 -1276 rmoveto
            hintmask 10010100
            1038 -71 callsubr
            hintmask 10100101
            -73 -78 4 14 -53 hvcurveto
            endchar
          </CharString>
          <CharString index="39">
            329 hintmask 11010100
            -65 callsubr
            return
          </CharString>
          <CharString index="40">
            rmoveto
            545 -272 256 272 164 192 -164 260 -230 hlineto
            -25 -260 rlineto
            -285 hlineto
            42 67 398 632 -187 92 rlineto
            -68 hlineto
            -498 -889 rlineto
            return
          </CharString>
          <CharString index="41">
            rrcurveto
            -127 6 129 -73 126 hhcurveto
            84 88 25 43 58 hvcurveto
            return
          </CharString>
          <CharString index="42">
            98 769 -106 callsubr
            return
          </CharString>
          <CharString index="43">
            -60 0 251 408 241 378 244 return
          </CharString>
          <CharString index="44">
            21 -21 -48 callsubr
            -20 return
          </CharString>
          <CharString index="45">
            hhcurveto
            -153 -104 -100 -126 -44 hvcurveto
            return
          </CharString>
          <CharString index="46">
            167 -102 callgsubr
            return
          </CharString>
          <CharString index="47">
            -103 -19 130 -172 -39 callsubr
          </CharString>
          <CharString index="48">
            479 vlineto
            13 55 72 5 68 hhcurveto
            237 40 -114 -118 -142 -71 -129 -192 hvcurveto
            return
          </CharString>
          <CharString index="49">
            rmoveto
            177 166 76 13 callgsubr
            90 -208 hhcurveto
            -167 -176 -66 14 callgsubr
            -103 14 callsubr
            47 84 103 74 23 83 -1 hvcurveto
            91 -1 68 -42 -89 vvcurveto
            -104 -64 -21 -95 1 vhcurveto
            endchar
          </CharString>
          <CharString index="50">
            281 -16 237 1075 242 return
          </CharString>
          <CharString index="51">
            hstemhm
            -47 callsubr
            return
          </CharString>
          <CharString index="52">
            107 21 -21 322 229 987 -20 return
          </CharString>
          <CharString index="53">
            -1307 -104 callgsubr
            return
          </CharString>
          <CharString index="54">
            -86 callgsubr
            endchar
          </CharString>
          <CharString index="55">
            rmoveto
            46 37 59 56 58 hhcurveto
            return
          </CharString>
          <CharString index="56">
            308 0 22 -22 252 hstemhm
            78 1466 hintmask 00000000
            hintmask 10100000
            78 22 rmoveto
            hintmask 01100000
            14 -22 rlineto
            1436 hlineto
            16 27 -747 1481 rlineto
            -32 hlineto
            -312 -1256 rmoveto
            332 734 352 -734 rlineto
            endchar
          </CharString>
          <CharString index="57">
            238 149 157 168 206 vvcurveto
            127 -103 172 -288 -208 -177 -110 -96 -61 vhcurveto
            108 -149 rlineto
            98 78 82 53 111 hhcurveto
            102 63 -45 -108 -191 -364 -263 -150 -78 hvcurveto
            return
          </CharString>
          <CharString index="58">
            rmoveto
            -256 88 -99 227 156 131 59 49 55 vhcurveto
            return
          </CharString>
          <CharString index="59">
            1522 return
          </CharString>
          <CharString index="60">
            188 318 return
          </CharString>
          <CharString index="61">
            320 1278 434 244 -1190 -244 436 hlineto
            endchar
          </CharString>
          <CharString index="62">
            -12 -16 220 730 222 return
          </CharString>
          <CharString index="63">
            312 213 hlineto
            -5 129 122 133 296 -475 rlineto
            355 hlineto
            -447 696 407 444 rlineto
            -353 hlineto
            -386 -450 11 287 rlineto
            684 26 callsubr
          </CharString>
          <CharString index="64">
            12 -16 239 -218 -47 callgsubr
            return
          </CharString>
          <CharString index="65">
            rmoveto
            656 -416 75 214 -431 324 431 327 -75 216 -656 -422 rlineto
            return
          </CharString>
          <CharString index="66">
            312 hintmask 00000000
            return
          </CharString>
          <CharString index="67">
            -35 95 rlineto
            -866 hlineto
            -2 -217 rlineto
            488 hlineto
            -58 -83 rlineto
            return
          </CharString>
          <CharString index="68">
            -62 callsubr
            endchar
          </CharString>
          <CharString index="69">
            -36 callsubr
            hintmask 11001000
            484 745 rlineto
            hintmask 10101000
            -40 callsubr
            endchar
          </CharString>
          <CharString index="70">
            -312 hlineto
            return
          </CharString>
          <CharString index="71">
            rmoveto
            42 -83 rlineto
            911 216 -529 hlineto
            61 84 rlineto
            return
          </CharString>
          <CharString index="72">
            -219 -92 -16 -93 hhcurveto
            -147 hlineto
            318 -718 rmoveto
            return
          </CharString>
          <CharString index="73">
            rmoveto
            -41 62 170 -47 166 hhcurveto
            return
          </CharString>
          <CharString index="74">
            rmoveto
            -35 57 201 -55 199 hhcurveto
            return
          </CharString>
          <CharString index="75">
            -516 205 -184 -21 return
          </CharString>
          <CharString index="76">
            75 -816 rlineto
            312 hlineto
            -182 -48 callsubr
            rlineto
            -434 hlineto
            -183 -800 -58 -336 -77 336 -203 800 rlineto
            -447 hlineto
            endchar
          </CharString>
          <CharString index="77">
            -26 callsubr
            endchar
          </CharString>
          <CharString index="78">
            -661 vmoveto
            432 vlineto
            5 29 126 2 65 hhcurveto
            203 90 -68 -156 -180 -101 -61 -191 -65 -127 3 23 -29 hvcurveto
            endchar
          </CharString>
          <CharString index="79">
            hstemhm
            91 1197 -1166 301 return
          </CharString>
          <CharString index="80">
            -96 callsubr
            endchar
          </CharString>
          <CharString index="81">
            866 242 -548 1280 -318 hlineto
            return
          </CharString>
          <CharString index="82">
            hstemhm
            162 312 return
          </CharString>
          <CharString index="83">
            hmoveto
            -15 callsubr
            return
          </CharString>
          <CharString index="84">
            -266 -16 230 714 228 return
          </CharString>
          <CharString index="85">
            -128 -57 -85 -107 -143 vvcurveto
            972 338 rmoveto
            202 22 80 64 115 hhcurveto
            140 43 -99 -167 -10 hvcurveto
            return
          </CharString>
          <CharString index="86">
            hstemhm
            151 315 return
          </CharString>
          <CharString index="87">
            240 -16 244 -207 -21 1298 240 -16 -20 return
          </CharString>
          <CharString index="88">
            583 vlineto
            48 10 62 2 53 2 rrcurveto
            198 8 106 -105 -193 vvcurveto
            -251 -146 -64 -155 vhcurveto
            return
          </CharString>
          <CharString index="89">
            1251 -78 callgsubr
            return
          </CharString>
          <CharString index="90">
            -8 0 242 1049 231 -81 81 return
          </CharString>
          <CharString index="91">
            231 hintmask 00000000
            hintmask 11000100
            return
          </CharString>
          <CharString index="92">
            312 1662 -37 callsubr
            return
          </CharString>
          <CharString index="93">
            659 5 -21 1538 -20 return
          </CharString>
          <CharString index="94">
            25 callsubr
            hintmask 11101000
            33 callsubr
            return
          </CharString>
          <CharString index="95">
            46 644 245 hstem
            255 850 vstem
            255 644 rmoveto
            850 245 -850 hlineto
            endchar
          </CharString>
          <CharString index="96">
            593 1530 rlineto
            -247 hlineto
            -769 -903 rmoveto
            223 2 205 160 289 vvcurveto
            return
          </CharString>
          <CharString index="97">
            -87 callsubr
            hintmask 00000000
            return
          </CharString>
          <CharString index="98">
            hstemhm
            139 312 -312 993 return
          </CharString>
          <CharString index="99">
            398 vlineto
            10 23 105 3 35 hhcurveto
            183 105 -52 -127 -172 -76 -69 -184 hvcurveto
            return
          </CharString>
          <CharString index="100">
            rmoveto
            234 hlineto
            176 636 rlineto
            -301 hlineto
            return
          </CharString>
          <CharString index="101">
            -26 -36 -87 -22 -54 hhcurveto
            return
          </CharString>
          <CharString index="102">
            130 -22 45 -58 -62 vvcurveto
            -99 -68 -55 -172 -1 vhcurveto
            -120 -61 16 15 -64 hvcurveto
            return
          </CharString>
          <CharString index="103">
            322 634 442 245 -442 399 601 244 -923 hlineto
            endchar
          </CharString>
          <CharString index="104">
            318 463 hlineto
            -1 35 53 -1 86 hhcurveto
            394 215 204 348 hvcurveto
            return
          </CharString>
          <CharString index="105">
            248 -119 200 -276 -3 vhcurveto
            -223 -2 -205 -161 -289 vvcurveto
            return
          </CharString>
          <CharString index="106">
            rmoveto
            231 hlineto
            36 719 rlineto
            -305 hlineto
            return
          </CharString>
          <CharString index="107">
            hstemhm
            -15 1451 return
          </CharString>
          <CharString index="108">
            21 -21 924 216 323 29 callgsubr
            return
          </CharString>
          <CharString index="109">
            rmoveto
            10 callgsubr
          </CharString>
          <CharString index="110">
            232 279 173 -138 176 218 238 -228 222 return
          </CharString>
          <CharString index="111">
            -16 235 -214 -21 940 216 return
          </CharString>
          <CharString index="112">
            -27 callgsubr
            323 220 return
          </CharString>
          <CharString index="113">
            -20 -25 callgsubr
            return
          </CharString>
          <CharString index="114">
            21 23 callsubr
            return
          </CharString>
          <CharString index="115">
            hintmask 0000000000000000
            return
          </CharString>
          <CharString index="116">
            326 145 162 206 117 -88 113 -162 9 hvcurveto
            return
          </CharString>
          <CharString index="117">
            -52 -115 1 5 -42 hvcurveto
            return
          </CharString>
          <CharString index="118">
            184 1 -129 return
          </CharString>
          <CharString index="119">
            625 0 251 125 222 65 241 374 244 return
          </CharString>
          <CharString index="120">
            hstem
            -47 callsubr
            15 callgsubr
            return
          </CharString>
          <CharString index="121">
            215 hhcurveto
            3 152 rmoveto
            -92 -65 return
          </CharString>
          <CharString index="122">
            hstemhm
            96 323 return
          </CharString>
          <CharString index="123">
            1614 return
          </CharString>
          <CharString index="124">
            240 -16 -20 22 callsubr
            609 336 hintmask 00000000
            return
          </CharString>
          <CharString index="125">
            116 -291 -1646 312 367 vlineto
            388 vmoveto
            return
          </CharString>
          <CharString index="126">
            26 -485 -21 490 219 720 233 -16 -20 return
          </CharString>
          <CharString index="127">
            206 hstem
            55 591 vstem
            55 return
          </CharString>
          <CharString index="128">
            -21 1278 244 return
          </CharString>
          <CharString index="129">
            hstemhm
            188 321 return
          </CharString>
          <CharString index="130">
            -21 1159 -20 return
          </CharString>
          <CharString index="131">
            126 389 return
          </CharString>
          <CharString index="132">
            -271 rmoveto
            -20 -165 rlineto
            -16 25 97 -12 58 hhcurveto
            return
          </CharString>
          <CharString index="133">
            -8 callgsubr
            endchar
          </CharString>
          <CharString index="134">
            -362 -211 191 1582 195 hstem
            return
          </CharString>
          <CharString index="135">
            -515 -191 170 1571 187 hstem
            return
          </CharString>
          <CharString index="136">
            153 58 94 106 102 59 -102 -155 vhcurveto
            return
          </CharString>
          <CharString index="137">
            -63 callsubr
            hstem
            return
          </CharString>
          <CharString index="138">
            -58 callgsubr
            hstem
            return
          </CharString>
          <CharString index="139">
            -32 callsubr
            537 -21 return
          </CharString>
          <CharString index="140">
            134 115 72 171 6 hvcurveto
            3 return
          </CharString>
          <CharString index="141">
            1237 462 hstem
            43 792 vstem
            return
          </CharString>
        <CharString name=".notdef">
          568 0 219 hstem
          233 1416 vstem
          233 hmoveto
          1416 1416 -1416 hlineto
          230 -1053 rmoveto
          358 342 -359 363 123 125 357 -368 352 366 128 -124 -363 -358 363 -368 -122 -122 -362 368 -347 -368 rlineto
          endchar
        </CharString>
        <CharString name=".null">
          endchar
        </CharString>
        <CharString name="A">
          -55 callsubr
          hstem
          -15 1451 vstem
          -100 callsubr
          endchar
        </CharString>
        <CharString name="AE">
          12 callsubr
          -198 198 hstemhm
          860 318 hintmask 00000000
          hintmask 11110100
          -111 hmoveto
          -37 callgsubr
          hintmask 11101100
          35 callgsubr
        </CharString>
        <CharString name="AEacute">
          12 callsubr
          167 -21 hstemhm
          860 318 -273 512 hintmask 00001010
          1051 -82 callsubr
          hintmask 00000000
          -1016 -1668 rmoveto
          -37 callgsubr
          hintmask 11110100
          35 callgsubr
        </CharString>
        <CharString name="Aacute">
          -55 callsubr
          171 -21 0 callsubr
          -867 512 hintmask 11101000
          -100 callsubr
          hintmask 00010100
          -199 992 -101 callgsubr
          endchar
        </CharString>
        <CharString name="Abreve">
          -55 callsubr
          95 203 0 callsubr
          -1090 727 hintmask 11101000
          -100 callsubr
          hintmask 00010100
          -204 1062 -93 callgsubr
          endchar
        </CharString>
        <CharString name="Acircumflex">
          -55 callsubr
          154 -21 0 callsubr
          -1109 770 hintmask 11101000
          -100 callsubr
          hintmask 00000000
          -425 1008 -93 callsubr
          hintmask 00010100
          -50 callgsubr
        </CharString>
        <CharString name="Adieresis">
          -55 callsubr
          96 346 0 callsubr
          -1164 878 hintmask 11101000
          -100 callsubr
          hintmask 00010100
          50 1063 -62 callgsubr
        </CharString>
        <CharString name="Agrave">
          -55 callsubr
          171 -21 0 callsubr
          -1093 512 hintmask 11101000
          -100 callsubr
          hintmask 00010100
          -205 992 -53 callsubr
        </CharString>
        <CharString name="Amacron">
          -55 callsubr
          168 206 0 callsubr
          -1017 591 hintmask 11101000
          -100 callsubr
          hintmask 00010100
          -495 1135 -60 callgsubr
          endchar
        </CharString>
        <CharString name="Aogonek">
          107 32 callsubr
          322 229 987 -20 0 callsubr
          hintmask 00000000
          hintmask 01111100
          -78 callsubr
          69 hlineto
          -106 -58 -119 -108 9 -150 -66 callsubr
          hintmask 10111100
          -70 callgsubr
          -7 94 84 63 101 66 rrcurveto
          71 hlineto
          -567 1538 rlineto
          -322 hlineto
          -48 -987 rmoveto
          163 522 44 157 43 -157 165 -522 rlineto
          endchar
        </CharString>
        <CharString name="Aring">
          107 21 -21 322 229 1272 146 hstem
          367 8 callgsubr
          vstem
          -78 callsubr
          347 hlineto
          -536 1454 87 41 62 76 1 124 rlinecurve
          11 callsubr
          90 -208 hhcurveto
          -167 -176 -66 -204 -4 hvcurveto
          -2 -119 53 -85 97 -44 rrcurveto
          193 116 rmoveto
          -92 -65 47 84 103 74 23 83 -1 hvcurveto
          91 -1 68 -42 -89 vvcurveto
          -104 -64 -21 -95 1 vhcurveto
          -209 -1016 rmoveto
          163 522 44 157 43 -157 165 -522 rlineto
          endchar
        </CharString>
        <CharString name="Atilde">
          -55 callsubr
          84 -33 callgsubr
          -15 1451 -1159 876 hintmask 11100010
          -100 callsubr
          hintmask 00000000
          -512 1082 -52 callsubr
          hintmask 00001101
          -98 callsubr
          hintmask 00010001
          -103 -29 130 -162 -39 callsubr
        </CharString>
        <CharString name="B">
          3 callgsubr
          hstemhm
          188 315 451 303 -241 322 hintmask 00000000
          hintmask 01101100
          -5 callgsubr
          161 hlineto
          hintmask 10101101
          -18 callgsubr
          hintmask 10110110
          -10 callgsubr
          hintmask 10101100
          -154 1 rlineto
          315 -630 rmoveto
          hintmask 10110110
          -8 callsubr
          hintmask 10101100
          -41 -109 2 7 -41 hvcurveto
          hintmask 10101101
          -29 callsubr
        </CharString>
        <CharString name="C">
          -15 callgsubr
          hstem
          100 328 vstem
          100 757 -98 callgsubr
          endchar
        </CharString>
        <CharString name="CR">
          endchar
        </CharString>
        <CharString name="Cacute">
          -15 callgsubr
          151 -21 hstemhm
          100 328 262 512 hintmask 11010000
          100 757 -98 callgsubr
          hintmask 00101000
          736 786 -101 callgsubr
          endchar
        </CharString>
        <CharString name="Ccaron">
          -15 callgsubr
          38 384 hstemhm
          100 328 28 754 hintmask 11010000
          100 757 -98 callgsubr
          hintmask 00101000
          624 819 -12 callgsubr
        </CharString>
        <CharString name="Ccedilla">
          -15 25 callgsubr
          293 -21 1299 252 hstem
          100 328 326 217 vstem
          556 -271 rmoveto
          -59 callgsubr
          3 74 -11 81 -25 53 140 11 91 36 75 30 -1 262 rcurveline
          -39 -53 -162 -57 -138 hhcurveto
          -289 -173 231 316 320 191 189 247 206 88 -58 -29 54 hvcurveto
          46 280 rlineto
          18 -96 -97 41 -221 hhcurveto
          -415 -331 -277 -504 -421 242 -297 399 -48 hvcurveto
          11 -29 6 -39 -4 -58 -52 callgsubr
          endchar
        </CharString>
        <CharString name="Ccircumflex">
          -15 callgsubr
          134 -21 hstemhm
          100 328 20 770 hintmask 11010000
          100 757 -98 callgsubr
          hintmask 00000000
          510 802 -93 callsubr
          hintmask 00101000
          -50 callgsubr
        </CharString>
        <CharString name="Cdotaccent">
          -15 callgsubr
          75 345 hstemhm
          100 328 229 361 hintmask 00101000
          829 1613 -92 callgsubr
          hintmask 11010000
          -729 -856 -98 callgsubr
          endchar
        </CharString>
        <CharString name="D">
          240 -16 244 -207 -21 1298 17 callsubr
          hintmask 01101000
          -5 callgsubr
          154 hlineto
          92 108 -15 -1 142 hvcurveto
          hintmask 10101100
          469 -4 301 302 519 vvcurveto
          466 -236 271 -510 vhcurveto
          hintmask 10011000
          -166 -114 -16 -89 hhcurveto
          -151 hlineto
          321 -1276 rmoveto
          hintmask 10101100
          1038 -71 callsubr
          hintmask 10011000
          -73 -78 4 14 -53 hvcurveto
          endchar
        </CharString>
        <CharString name="DC1">
          endchar
        </CharString>
        <CharString name="DC2">
          endchar
        </CharString>
        <CharString name="DC3">
          endchar
        </CharString>
        <CharString name="DC4">
          endchar
        </CharString>
        <CharString name="DEL">
          endchar
        </CharString>
        <CharString name="DLE">
          endchar
        </CharString>
        <CharString name="Dcaron">
          -20 callsubr
          74 384 22 callsubr
          -119 754 -26 336 hintmask 00001010
          658 1576 -85 callgsubr
          hintmask 00000000
          -202 -1868 -69 callsubr
        </CharString>
        <CharString name="Dcroat">
          -80 callsubr
        </CharString>
        <CharString name="Delta">
          -51 callsubr
        </CharString>
        <CharString name="E">
          -64 callsubr
          13 callsubr
          -84 callsubr
        </CharString>
        <CharString name="Eacute">
          -64 callsubr
          167 -21 -56 callsubr
          52 512 hintmask 00010100
          704 -82 callsubr
          hintmask 11101000
          -370 -1668 rmoveto
          -84 callsubr
        </CharString>
        <CharString name="Ebreve">
          -64 callsubr
          91 203 -56 callsubr
          -171 727 hintmask 00010100
          699 1613 -93 callgsubr
          hintmask 11101000
          -511 -1613 rmoveto
          -84 callsubr
        </CharString>
        <CharString name="Ecaron">
          -64 callsubr
          54 384 -56 callsubr
          -182 754 hintmask 00010100
          592 1576 -85 callgsubr
          hintmask 11101000
          -136 -1868 rmoveto
          -84 callsubr
        </CharString>
        <CharString name="Ecircumflex">
          -64 callsubr
          150 -21 -56 callsubr
          -190 770 hintmask 11101000
          -5 callgsubr
          -81 callsubr
          hintmask 00000000
          290 37 -93 callsubr
          hintmask 00010100
          -50 callgsubr
        </CharString>
        <CharString name="Edieresis">
          -64 callsubr
          92 346 -56 callsubr
          -245 878 hintmask 00010100
          953 16 callsubr
          -97 callgsubr
          hintmask 11101000
          -242 -1614 rmoveto
          -84 callsubr
        </CharString>
        <CharString name="Edotaccent">
          -64 callsubr
          91 345 -56 callsubr
          19 361 hintmask 00010100
          697 1613 -92 callgsubr
          hintmask 11101000
          -509 -1613 rmoveto
          -84 callsubr
        </CharString>
        <CharString name="Egrave">
          -64 callsubr
          167 -21 -56 callsubr
          -174 512 hintmask 00010100
          698 1543 -86 callgsubr
          hintmask 11101000
          -510 -1543 rmoveto
          -84 callsubr
        </CharString>
        <CharString name="Emacron">
          -64 callsubr
          164 206 -56 callsubr
          -98 591 hintmask 00010100
          408 1686 -60 callgsubr
          hintmask 11101000
          -220 -1892 rmoveto
          -84 callsubr
        </CharString>
        <CharString name="Eng">
          306 30 callsubr
          187 314 615 315 15 callgsubr
          314 741 hlineto
          -38 351 115 -231 526 -842 rlineto
          -140 -193 -146 -171 -49 vhcurveto
          70 -125 269 12 257 162 63 230 rlinecurve
          38 134 -7 125 187 vvcurveto
          1113 -315 -757 vlineto
          35 -361 -112 223 -544 895 rlineto
          -308 hlineto
          endchar
        </CharString>
        <CharString name="Eogonek">
          -60 -32 callsubr
          516 251 408 241 378 244 -56 callsubr
          hintmask 00000000
          hintmask 01111100
          -5 callgsubr
          724 hlineto
          -106 -58 -119 -108 9 -150 -66 callsubr
          hintmask 10111100
          -70 callgsubr
          -7 94 84 63 101 66 rrcurveto
          62 -83 callsubr
          endchar
        </CharString>
        <CharString name="Eth">
          -80 callsubr
        </CharString>
        <CharString name="Euro">
          190 -28 229 271 192 193 192 253 236 hstem
          92 1288 vstem
          92 472 rmoveto
          213 hlineto
          -315 70 216 -185 357 hhcurveto
          285 61 66 12 86 hvcurveto
          -60 234 rlineto
          -46 -67 -126 -37 -132 hhcurveto
          -202 -102 103 168 -46 hvcurveto
          452 192 -482 hlineto
          -2 40 -1 41 44 vvcurveto
          23 0 23 2 22 vhcurveto
          532 192 -497 hlineto
          175 60 128 78 161 hhcurveto
          166 -1 65 -25 72 -42 53 243 rcurveline
          -85 19 -78 50 -222 -8 -321 -12 -233 -165 -92 -312 rrcurveto
          -194 -192 157 hlineto
          -4 -44 -2 -45 -48 vvcurveto
          -19 0 -19 1 -18 vhcurveto
          -189 hlineto
          endchar
        </CharString>
        <CharString name="F">
          28 callgsubr
          hstem
          188 322 15 callgsubr
          -4 callsubr
        </CharString>
        <CharString name="G">
          -29 callgsubr
          hstem
          100 331 639 302 vstem
          100 753 -101 callsubr
          endchar
        </CharString>
        <CharString name="Gbreve">
          -29 callgsubr
          76 203 hstemhm
          100 331 45 727 -133 302 hintmask 00010100
          840 16 callsubr
          -93 callgsubr
          hintmask 11101010
          -740 -861 -101 callsubr
          endchar
        </CharString>
        <CharString name="Gcircumflex">
          -29 callgsubr
          135 -21 hstemhm
          100 331 26 770 -157 302 hintmask 11101010
          100 753 -101 callsubr
          hintmask 00000000
          519 807 -93 callsubr
          hintmask 00010100
          -50 callgsubr
        </CharString>
        <CharString name="Gcommaaccent">
          180 -539 -21 65 -21 500 244 349 243 466 252 hstemhm
          100 331 326 231 82 302 hintmask 00000000
          hintmask 11000010
          695 -105 callsubr
          hintmask 00111101
          -779 839 -101 callsubr
          endchar
        </CharString>
        <CharString name="Gdotaccent">
          -29 callgsubr
          76 345 hstemhm
          100 331 235 361 43 302 hintmask 00010100
          838 16 callsubr
          -92 callgsubr
          hintmask 11101010
          -738 -861 -101 callsubr
          endchar
        </CharString>
        <CharString name="H">
          287 21 -21 651 239 632 -20 hstem
          -47 callsubr
          593 314 vstem
          -19 callgsubr
          endchar
        </CharString>
        <CharString name="HT">
          endchar
        </CharString>
        <CharString name="Hbar">
          307 21 -21 621 233 191 192 285 -20 hstem
          188 322 601 322 15 callgsubr
          322 621 601 -621 322 1045 166 192 -166 285 -322 -285 -601 285 -322 -285 -164 -192 164 hlineto
          322 -191 rmoveto
          191 601 -191 vlineto
          endchar
        </CharString>
        <CharString name="Hcircumflex">
          289 21 -21 651 239 632 -20 170 -21 -56 callsubr
          -90 770 -87 314 hintmask 11101010
          -19 callgsubr
          hintmask 00000000
          390 37 -93 callsubr
          hintmask 00010100
          -50 callgsubr
        </CharString>
        <CharString name="I">
          -39 callgsubr
          hstem
          201 320 vstem
          -70 callsubr
          endchar
        </CharString>
        <CharString name="IJ">
          206 -63 callsubr
          hstemhm
          201 320 480 320 hintmask 11100000
          -70 callsubr
          hintmask 01010000
          511 -1686 -72 callsubr
          endchar
        </CharString>
        <CharString name="Iacute">
          -592 5 callgsubr
          201 320 -302 512 hintmask 11010000
          -70 callsubr
          hintmask 00101000
          164 21 -101 callgsubr
          endchar
        </CharString>
        <CharString name="Ibreve">
          -39 callgsubr
          111 203 hstemhm
          -4 727 -522 320 hintmask 11001000
          -70 callsubr
          hintmask 00110000
          159 91 -93 callgsubr
          endchar
        </CharString>
        <CharString name="Icircumflex">
          -39 callgsubr
          170 -21 hstemhm
          -23 770 -546 320 hintmask 11001000
          -70 callsubr
          hintmask 00000000
          -62 37 -93 callsubr
          hintmask 00110000
          -50 callgsubr
        </CharString>
        <CharString name="Idieresis">
          -39 callgsubr
          112 346 hstemhm
          -78 878 -599 320 hintmask 11001000
          -70 callsubr
          hintmask 00110000
          413 92 -62 callgsubr
        </CharString>
        <CharString name="Idotaccent">
          -39 callgsubr
          111 345 hstemhm
          186 361 -346 320 hintmask 11001000
          -70 callsubr
          hintmask 00110000
          157 91 -4 callgsubr
        </CharString>
        <CharString name="Igrave">
          -592 5 callgsubr
          -7 512 -304 320 hintmask 11001000
          -70 callsubr
          hintmask 00110000
          158 21 -53 callsubr
        </CharString>
        <CharString name="Imacron">
          -39 callgsubr
          184 206 hstemhm
          69 591 -459 320 hintmask 11001000
          -70 callsubr
          hintmask 00110000
          -132 164 -60 callgsubr
          endchar
        </CharString>
        <CharString name="Iogonek">
          -583 32 callsubr
          -48 callsubr
          -20 hstemhm
          201 320 hintmask 00000000
          hintmask 01111000
          201 hmoveto
          56 hlineto
          -106 -58 -119 -108 9 -150 -66 callsubr
          hintmask 10111000
          -70 callgsubr
          -7 94 84 63 101 66 rrcurveto
          57 -48 callsubr
          -320 hlineto
          endchar
        </CharString>
        <CharString name="Itilde">
          -39 callgsubr
          100 -33 callgsubr
          -73 876 -602 320 hintmask 11000010
          -70 callsubr
          hintmask 00000000
          -149 111 -52 callsubr
          hintmask 00011100
          -98 callsubr
          hintmask 00100100
          -103 -29 130 -162 -39 callsubr
        </CharString>
        <CharString name="J">
          -516 -48 callsubr
          -20 hstem
          279 320 vstem
          -10 -164 -72 callsubr
          endchar
        </CharString>
        <CharString name="Jcircumflex">
          -516 -48 callsubr
          -20 171 -21 hstemhm
          48 770 -539 320 hintmask 10010000
          -10 -164 -72 callsubr
          hintmask 00000000
          220 1724 -93 callsubr
          hintmask 01100000
          -50 callgsubr
        </CharString>
        <CharString name="K">
          130 21 -21 1522 4 callgsubr
          -57 callgsubr
        </CharString>
        <CharString name="Kcommaaccent">
          130 -44 callgsubr
          -48 callsubr
          -20 -56 callsubr
          178 -16 callsubr
          622 -105 callsubr
          hintmask 00111000
          -618 86 rmoveto
          -57 callgsubr
        </CharString>
        <CharString name="L">
          -194 0 242 1280 4 callgsubr
          -30 callsubr
        </CharString>
        <CharString name="LF">
          endchar
        </CharString>
        <CharString name="Lacute">
          -194 0 242 1280 -20 187 -21 -56 callsubr
          -299 512 hintmask 00101000
          353 -82 callsubr
          hintmask 11010000
          -19 -1668 rmoveto
          -30 callsubr
        </CharString>
        <CharString name="Lcaron">
          -194 0 242 768 698 -186 -20 -56 callsubr
          354 239 hintmask 10110000
          -5 callgsubr
          -26 callsubr
          hintmask 01001000
          791 -512 -83 callgsubr
        </CharString>
        <CharString name="Lcommaaccent">
          -194 -539 -21 65 -21 516 242 1280 -20 -56 callsubr
          44 -16 callsubr
          488 -105 callsubr
          hintmask 00111000
          -484 86 rmoveto
          -30 callsubr
        </CharString>
        <CharString name="Ldot">
          96 0 242 431 -21 870 -20 -56 callsubr
          377 389 hintmask 01001000
          883 845 -82 callgsubr
          hintmask 10110000
          -695 -845 rmoveto
          -30 callsubr
        </CharString>
        <CharString name="Lslash">
          -194 0 242 1280 4 callgsubr
          866 242 -548 478 hlineto
          378 139 -65 172 -313 -116 rlineto
          607 -318 -724 vlineto
          -163 -60 65 -170 98 36 rlineto
          endchar
        </CharString>
        <CharString name="M">
          572 6 -21 35 -21 22 -21 -48 callsubr
          -20 hstemhm
          70 1746 hintmask 00000000
          hintmask 01011000
          70 -1 19 callgsubr
          hintmask 10011000
          -2 callgsubr
          hintmask 00111000
          -31 callsubr
        </CharString>
        <CharString name="N">
          306 30 callsubr
          188 296 652 296 15 callgsubr
          -84 callgsubr
        </CharString>
        <CharString name="Nacute">
          308 5 callgsubr
          188 296 184 512 -44 296 hintmask 00101000
          814 -82 callsubr
          hintmask 11010100
          -480 -1668 rmoveto
          -84 callgsubr
        </CharString>
        <CharString name="Ncaron">
          308 -63 callsubr
          74 384 hstemhm
          188 296 -50 754 -52 296 hintmask 00101000
          702 1576 -85 callgsubr
          hintmask 11010100
          -246 -1868 rmoveto
          -84 callgsubr
        </CharString>
        <CharString name="Ncommaaccent">
          308 -44 callgsubr
          -48 callsubr
          -20 hstemhm
          188 296 231 231 190 296 hintmask 00000000
          hintmask 11000100
          653 -105 callsubr
          hintmask 00111010
          -649 86 rmoveto
          -84 callgsubr
        </CharString>
        <CharString name="Ntilde">
          308 -63 callsubr
          100 -33 callgsubr
          188 296 -108 876 -116 296 hintmask 00000000
          hintmask 00011010
          501 -76 callsubr
          -188 -1731 rmoveto
          -84 callgsubr
        </CharString>
        <CharString name="O">
          -57 callsubr
          hstem
          98 329 741 329 vstem
          -65 callsubr
          endchar
        </CharString>
        <CharString name="OE">
          819 -16 237 -221 251 412 241 374 244 -226 242 hstemhm
          106 325 623 318 hintmask 00000000
          hintmask 10101110
          106 769 rmoveto
          -9 -455 258 -333 435 3 100 1 93 17 71 39 rrcurveto
          hintmask 01110110
          -41 993 251 -675 412 450 241 -450 374 610 244 -928 vlineto
          hintmask 01101110
          -31 vlineto
          33 -64 -79 14 -91 hhcurveto
          hintmask 10101110
          -399 -4 -305 -263 -10 -502 rrcurveto
          698 -548 rmoveto
          -241 -132 216 321 425 201 113 188 113 72 -50 -56 49 hvcurveto
          -871 vlineto
          -73 -59 -83 -25 -108 hhcurveto
          endchar
        </CharString>
        <CharString name="Oacute">
          -57 callsubr
          151 -21 16 callgsubr
          254 512 -25 329 hintmask 00101000
          827 -82 callsubr
          hintmask 11010100
          -583 -899 -106 callsubr
          endchar
        </CharString>
        <CharString name="Obreve">
          -57 callsubr
          75 203 16 callgsubr
          31 727 -17 329 hintmask 00101000
          822 1613 -93 callgsubr
          hintmask 11010100
          -724 -844 -106 callsubr
          endchar
        </CharString>
        <CharString name="Ocircumflex">
          -57 callsubr
          134 -21 16 callgsubr
          12 770 -41 -68 callsubr
          hintmask 00000000
          -197 1338 -93 callsubr
          hintmask 00101000
          -50 callgsubr
        </CharString>
        <CharString name="Odieresis">
          -57 callsubr
          76 346 16 callgsubr
          -43 878 -94 329 hintmask 00101000
          1076 16 callsubr
          -97 callgsubr
          hintmask 11010100
          -455 -845 -106 callsubr
          endchar
        </CharString>
        <CharString name="Ograve">
          -57 callsubr
          151 -21 16 callgsubr
          28 512 201 329 hintmask 00101000
          821 1543 -86 callgsubr
          hintmask 11010100
          -723 -774 -106 callsubr
          endchar
        </CharString>
        <CharString name="Ohungarumlaut">
          -57 callsubr
          150 -21 16 callgsubr
          23 963 -245 -68 callsubr
          hintmask 00101000
          -186 1331 -73 callgsubr
        </CharString>
        <CharString name="Omacron">
          -57 callsubr
          148 206 16 callgsubr
          104 591 46 329 hintmask 00101000
          531 1686 -60 callgsubr
          hintmask 11010100
          -433 -1123 -106 callsubr
          endchar
        </CharString>
        <CharString name="Omega">
          -77 callsubr
        </CharString>
        <CharString name="Oslash">
          -57 callsubr
          -17 -20 16 callgsubr
          741 329 hintmask 00000000
          hintmask 10111000
          376 -188 rmoveto
          125 -32 83 227 63 -16 70 -8 74 1 rlinecurve
          406 8 290 245 10 526 6 344 -140 264 -243 110 98 268 rcurveline
          -125 32 -95 -260 rlineto
          hintmask 11011000
          -55 13 -59 6 -63 -2 -412 -12 -301 -230 -10 -527 -7 -336 134 -262 238 -119 rrcurveto
          98 270 rmoveto
          -90 97 -44 158 181 vvcurveto
          391 175 147 212 35 32 -5 -9 30 vhcurveto
          -241 -1037 rmoveto
          354 971 rlineto
          96 -91 48 -161 -191 vvcurveto
          -381 -144 -171 -226 -47 -43 8 16 -38 vhcurveto
          endchar
        </CharString>
        <CharString name="Otilde">
          -57 callsubr
          64 -33 callgsubr
          98 329 -38 876 -97 329 hintmask 00000000
          hintmask 00011010
          514 -76 callsubr
          -291 -962 -106 callsubr
          endchar
        </CharString>
        <CharString name="P">
          26 callgsubr
          -56 callsubr
          467 316 hintmask 00000000
          hintmask 11011100
          -5 callgsubr
          -3 callsubr
          hintmask 11101100
          376 -208 149 -348 vhcurveto
          hintmask 11011100
          18 callgsubr
          hintmask 11101100
          -19 callsubr
          hintmask 11011100
          -50 -67 2 6 -49 hvcurveto
          endchar
        </CharString>
        <CharString name="Q">
          281 -326 245 1377 242 hstem
          98 329 741 329 vstem
          714 -14 rmoveto
          -241 77 223 -71 296 hhcurveto
          95 116 30 21 29 hvcurveto
          219 vlineto
          -15 -46 -102 -10 -54 hhcurveto
          -166 -133 7 82 -62 hvcurveto
          300 75 201 243 9 437 9 469 -264 318 -421 -12 -412 -12 -301 -230 -10 -527 -9 -440 233 -315 392 -28 rrcurveto
          84 235 rmoveto
          -249 -122 237 300 391 175 147 212 238 116 -224 -299 -381 -144 -171 -226 hvcurveto
          endchar
        </CharString>
        <CharString name="R">
          -17 callgsubr
          -56 callsubr
          472 309 hintmask 00000000
          hintmask 11101100
          -5 callgsubr
          -86 callsubr
          hintmask 11011100
          -35 callsubr
          hintmask 11101100
          -59 callsubr
          hintmask 11011100
          10 callsubr
          endchar
        </CharString>
        <CharString name="RS">
          endchar
        </CharString>
        <CharString name="Racute">
          -17 callgsubr
          187 -21 -56 callsubr
          107 512 -147 309 hintmask 00000000
          hintmask 11100101
          -5 callgsubr
          -86 callsubr
          hintmask 11010101
          -35 callsubr
          hintmask 11100101
          -59 callsubr
          hintmask 11010101
          10 callsubr
          hintmask 00001010
          253 739 -101 callgsubr
          endchar
        </CharString>
        <CharString name="Rcaron">
          -17 callgsubr
          74 384 -56 callsubr
          -127 754 -155 309 hintmask 00001010
          647 1576 -85 callgsubr
          hintmask 00000000
          -191 -1868 rmoveto
          -86 callsubr
          hintmask 11100101
          -35 callsubr
          hintmask 11010101
          -59 callsubr
          hintmask 11100101
          10 callsubr
          endchar
        </CharString>
        <CharString name="Rcommaaccent">
          121 -539 -21 65 -21 537 0 callgsubr
          -56 callsubr
          167 231 74 309 8 callsubr
          hintmask 1100000100000000
          611 -105 callsubr
          8 callsubr
          -607 86 rmoveto
          -86 callsubr
          hintmask 0011101010000000
          -35 callsubr
          hintmask 0011011010000000
          -59 callsubr
          hintmask 0011101010000000
          10 callsubr
          endchar
        </CharString>
        <CharString name="S">
          -13 callgsubr
          -9 callsubr
          -320 320 hintmask 00000000
          hintmask 11010000
          152 74 -33 callsubr
          hintmask 11101000
          -103 callgsubr
          endchar
        </CharString>
        <CharString name="Sacute">
          -13 callgsubr
          151 -21 -9 callsubr
          -625 512 -207 320 hintmask 00000000
          hintmask 11001000
          152 74 -33 callsubr
          hintmask 11010010
          -103 callgsubr
          hintmask 00100100
          456 1214 -101 callgsubr
          endchar
        </CharString>
        <CharString name="Scaron">
          -13 callgsubr
          38 384 -9 callsubr
          -859 754 -215 320 hintmask 00000000
          hintmask 11001000
          152 74 -33 callsubr
          hintmask 11010010
          -103 callgsubr
          hintmask 00100100
          344 1247 -12 callgsubr
        </CharString>
        <CharString name="Scedilla">
          -107 25 callgsubr
          293 -21 25 -21 1309 238 hstemhm
          139 312 87 217 57 320 hintmask 00000000
          hintmask 11011110
          152 74 rmoveto
          49 -30 156 -45 169 -12 10 -29 6 -37 -4 -56 -52 callgsubr
          -59 callgsubr
          hintmask 10111110
          3 76 -11 83 -27 53 rrcurveto
          249 32 163 145 240 vvcurveto
          247 -179 109 -239 126 vhcurveto
          -102 callsubr
          endchar
        </CharString>
        <CharString name="Scircumflex">
          -13 callgsubr
          134 -21 -9 callsubr
          -867 770 -223 320 hintmask 00000000
          hintmask 11001000
          152 74 -33 callsubr
          hintmask 11010010
          -103 callgsubr
          hintmask 00000000
          230 1230 -93 callsubr
          hintmask 00100100
          -50 callgsubr
        </CharString>
        <CharString name="T">
          -64 21 21 callsubr
          hstem
          466 320 vstem
          466 hmoveto
          -46 callsubr
        </CharString>
        <CharString name="Tbar">
          -64 21 -21 597 199 482 244 hstem
          466 320 vstem
          466 hmoveto
          320 597 289 199 -289 482 434 244 -1190 -244 436 -482 -273 -199 273 hlineto
          endchar
        </CharString>
        <CharString name="Tcaron">
          -64 21 21 callsubr
          54 384 hstemhm
          245 754 -533 320 hintmask 00110000
          513 1576 -85 callgsubr
          hintmask 11001000
          221 -1868 rmoveto
          -46 callsubr
        </CharString>
        <CharString name="Thorn">
          45 21 -21 257 243 546 241 235 -20 hstem
          -47 callsubr
          461 315 15 callgsubr
          318 266 hlineto
          -4 40 62 -5 94 hhcurveto
          376 204 204 344 331 -207 151 -326 -86 -84 -8 -5 -73 hvcurveto
          248 -318 vlineto
          318 -1012 rmoveto
          518 vlineto
          47 12 58 4 48 2 rrcurveto
          200 8 108 -86 -166 vvcurveto
          -258 -141 -44 -164 -46 -56 -1 11 -54 vhcurveto
          endchar
        </CharString>
        <CharString name="U">
          -54 callgsubr
          hstem
          151 315 597 313 vstem
          -73 callsubr
          endchar
        </CharString>
        <CharString name="US">
          endchar
        </CharString>
        <CharString name="Uacute">
          -54 callgsubr
          187 -21 -21 callsubr
          160 512 -75 313 hintmask 00101000
          772 -82 callsubr
          hintmask 11010100
          -476 -1015 -103 callsubr
          endchar
        </CharString>
        <CharString name="Ubreve">
          -54 callgsubr
          111 203 -21 callsubr
          -63 727 -67 313 hintmask 00101000
          767 1613 -93 callgsubr
          hintmask 11010100
          -617 -960 -103 callsubr
          endchar
        </CharString>
        <CharString name="Ucircumflex">
          -54 callgsubr
          170 -21 -21 callsubr
          -82 770 -91 313 hintmask 11010100
          -73 callsubr
          hintmask 00000000
          394 37 -93 callsubr
          hintmask 00101000
          -50 callgsubr
        </CharString>
        <CharString name="Udieresis">
          -54 callgsubr
          112 346 -21 callsubr
          -137 878 -144 313 hintmask 00101000
          1021 16 callsubr
          -97 callgsubr
          hintmask 11010100
          -348 -961 -103 callsubr
          endchar
        </CharString>
        <CharString name="Ugrave">
          -54 callgsubr
          187 -21 -21 callsubr
          -66 512 151 313 hintmask 00101000
          766 1543 -86 callgsubr
          hintmask 11010100
          -616 -890 -103 callsubr
          endchar
        </CharString>
        <CharString name="Uhungarumlaut">
          -54 callgsubr
          186 -21 -21 callsubr
          -71 963 -295 313 hintmask 11010100
          -73 callsubr
          hintmask 00101000
          405 30 -73 callgsubr
        </CharString>
        <CharString name="Umacron">
          -54 callgsubr
          184 206 -21 callsubr
          10 591 -4 313 hintmask 00101000
          476 1686 -60 callgsubr
          hintmask 11010100
          -326 -1239 -103 callsubr
          endchar
        </CharString>
        <CharString name="Uogonek">
          211 -32 callsubr
          500 254 1284 -20 -21 callsubr
          597 313 hintmask 00000000
          hintmask 01111100
          150 653 rmoveto
          -403 -1 153 -266 456 6 6 1 6 hhcurveto
          -89 -60 -74 -91 8 -130 rrcurveto
          -127 6 129 -93 126 hhcurveto
          84 88 25 43 58 hvcurveto
          hintmask 10111100
          -70 callgsubr
          96 61 81 67 62 vhcurveto
          253 76 129 213 335 vvcurveto
          882 -313 -852 vlineto
          -339 -104 -93 -192 -195 -108 77 355 1 vhcurveto
          2 852 rlineto
          -315 hlineto
          endchar
        </CharString>
        <CharString name="Uring">
          211 -16 254 1177 152 -45 -20 321 146 -21 callsubr
          -42 8 callgsubr
          -44 313 hintmask 10101001
          -73 callsubr
          hintmask 01010110
          610 -107 -58 callsubr
        </CharString>
        <CharString name="Utilde">
          -54 callgsubr
          100 -33 callgsubr
          151 315 -132 876 -147 313 hintmask 00000000
          hintmask 00011010
          459 -76 callsubr
          -184 -1078 -103 callsubr
          endchar
        </CharString>
        <CharString name="V">
          72 15 -21 1528 -20 hstem
          -5 1396 vstem
          561 -6 rmoveto
          270 hlineto
          560 1528 rlineto
          -339 hlineto
          -269 -831 -82 -290 -81 290 -284 831 rlineto
          -341 hlineto
          endchar
        </CharString>
        <CharString name="W">
          -14 callsubr
          hstem
          5 1963 vstem
          413 -16 -89 callgsubr
        </CharString>
        <CharString name="Wacute">
          -14 callsubr
          187 -21 hstemhm
          5 1963 -1144 512 hintmask 00101000
          970 -82 callsubr
          hintmask 11010000
          -411 -1684 -89 callgsubr
        </CharString>
        <CharString name="Wcircumflex">
          -14 callsubr
          170 -21 hstemhm
          5 1963 -1386 770 hintmask 11010000
          413 -16 -88 callsubr
          hintmask 00000000
          739 37 -93 callsubr
          hintmask 00101000
          -50 callgsubr
        </CharString>
        <CharString name="Wdieresis">
          -14 callsubr
          112 346 hstemhm
          5 1963 -1441 878 hintmask 00101000
          1219 16 callsubr
          -97 callgsubr
          hintmask 11010000
          -283 -1630 -89 callgsubr
        </CharString>
        <CharString name="Wgrave">
          -14 callsubr
          187 -21 hstemhm
          5 1963 -1370 512 hintmask 00101000
          964 1543 -86 callgsubr
          hintmask 11010000
          -551 -1559 -89 callgsubr
        </CharString>
        <CharString name="X">
          62 -63 callsubr
          21 -20 hstemhm
          32 1312 hintmask 00000000
          hintmask 10110000
          32 hmoveto
          332 hlineto
          236 425 73 131 74 -131 244 -425 rlineto
          353 hlineto
          -464 752 rlineto
          hintmask 11010000
          454 770 rlineto
          -336 hlineto
          -220 -402 -75 -137 -78 137 rlineto
          hintmask 10110000
          -234 403 -348 -1 448 -737 rlineto
          endchar
        </CharString>
        <CharString name="Y">
          -73 30 callsubr
          461 319 vstem
          -81 callgsubr
          endchar
        </CharString>
        <CharString name="Yacute">
          -73 5 callgsubr
          461 319 -283 512 hintmask 11010000
          -81 callgsubr
          hintmask 00101000
          182 1008 -101 callgsubr
          endchar
        </CharString>
        <CharString name="Ycircumflex">
          -73 -63 callsubr
          170 -21 hstemhm
          255 770 -564 319 hintmask 11001000
          -81 callgsubr
          hintmask 00000000
          -44 1024 -93 callsubr
          hintmask 00110000
          -50 callgsubr
        </CharString>
        <CharString name="Ydieresis">
          -73 -63 callsubr
          112 346 hstemhm
          200 878 -617 319 hintmask 11001000
          -81 callgsubr
          hintmask 00110000
          431 1079 -62 callgsubr
        </CharString>
        <CharString name="Ygrave">
          -73 5 callgsubr
          271 512 -322 319 hintmask 11001000
          -81 callgsubr
          hintmask 00110000
          176 1008 -53 callsubr
        </CharString>
        <CharString name="Z">
          -17 callsubr
          hstemhm
          54 1181 hintmask 00000000
          hintmask 11010000
          94 hmoveto
          -16 callgsubr
          hintmask 10110000
          672 1106 rlineto
          hintmask 11010000
          -43 callgsubr
          endchar
        </CharString>
        <CharString name="Zacute">
          -17 callsubr
          167 -21 hstemhm
          54 1181 -701 512 hintmask 00000000
          hintmask 11001000
          94 hmoveto
          -16 callgsubr
          hintmask 10101000
          672 1106 rlineto
          hintmask 11001000
          -43 callgsubr
          hintmask 00010100
          626 1459 -101 callgsubr
          endchar
        </CharString>
        <CharString name="Zcaron">
          -17 callsubr
          54 384 hstemhm
          54 1181 -935 754 hintmask 00010100
          568 1576 -85 callgsubr
          hintmask 00000000
          -206 -1868 -36 callgsubr
        </CharString>
        <CharString name="Zdotaccent">
          -17 callsubr
          91 345 hstemhm
          54 1181 -734 361 hintmask 00010100
          673 1613 -92 callgsubr
          hintmask 00000000
          -579 -1613 -36 callgsubr
        </CharString>
        <CharString name="a">
          -63 callgsubr
          hstem
          102 322 334 312 vstem
          -107 callgsubr
          endchar
        </CharString>
        <CharString name="aacute">
          -63 callgsubr
          492 -21 24 callgsubr
          69 555 -290 312 hintmask 11101010
          -107 callgsubr
          hintmask 00010100
          218 894 -20 callgsubr
        </CharString>
        <CharString name="abreve">
          -63 callgsubr
          24 callgsubr
          334 312 vstemhm
          -107 callgsubr
          203 940 -95 callsubr
        </CharString>
        <CharString name="acircumflex">
          -63 callgsubr
          74 462 24 callgsubr
          -193 792 -265 312 hintmask 11101010
          -107 callgsubr
          hintmask 00010100
          -37 879 -46 callgsubr
        </CharString>
        <CharString name="acute">
          -649 1655 -21 hstem
          55 555 vstem
          204 1252 -20 callgsubr
        </CharString>
        <CharString name="acute.cap">
          -662 1689 -21 hstem
          85 512 vstem
          231 -82 callsubr
          endchar
        </CharString>
        <CharString name="adieresis">
          -63 callgsubr
          147 353 24 callgsubr
          -215 834 -285 312 hintmask 11101010
          -107 callgsubr
          hintmask 00010100
          436 952 rmoveto
          -94 callsubr
          -485 hmoveto
          -94 callsubr
          endchar
        </CharString>
        <CharString name="ae">
          537 -16 211 -211 3 callsubr
          hstemhm
          102 320 -320 1652 hintmask 00000000
          hintmask 01100110
          102 330 -65 callgsubr
          hintmask 01011001
          -42 callgsubr
          hintmask 01100110
          -22 callsubr
          hintmask 10010110
          -34 callgsubr
        </CharString>
        <CharString name="aeacute">
          537 -16 3 callsubr
          498 -21 hstemhm
          102 320 -320 1652 -947 555 hintmask 0000010010000000
          956 1251 -99 callgsubr
          8 callsubr
          -705 -1058 -65 callgsubr
          hintmask 1100101000000000
          -42 callgsubr
          hintmask 1011000100000000
          -22 callsubr
          hintmask 1100101000000000
          -34 callgsubr
        </CharString>
        <CharString name="afii61352">
          1406 0 217 181 210 709 213 -8 -20 hstemhm
          188 277 618 275 209 304 440 304 hintmask 00000000
          hintmask 11101111
          1567 982 rmoveto
          -308 -4 119 -276 407 hhcurveto
          316 206 211 351 4 hvcurveto
          311 2 -147 259 -362 hhcurveto
          -323 -213 -195 -353 -5 hvcurveto
          -1379 -982 rmoveto
          277 788 hlineto
          -6 296 119 -267 484 -817 rlineto
          296 hlineto
          hintmask 11011111
          -48 callsubr
          -275 -864 vlineto
          4 -242 -99 232 -504 874 rlineto
          -296 hlineto
          1683 -544 rmoveto
          hintmask 11101111
          230 78 110 152 -1 vhcurveto
          144 -1 66 -136 -219 vvcurveto
          -240 -68 -114 -150 1 vhcurveto
          hintmask 11011111
          -148 2 -74 140 228 vvcurveto
          hintmask 11101111
          -224 -978 rmoveto
          907 217 -907 hlineto
          endchar
        </CharString>
        <CharString name="agrave">
          -63 callgsubr
          492 -21 24 callgsubr
          -233 556 11 312 hintmask 11101010
          -107 callgsubr
          hintmask 00010100
          174 894 -91 callsubr
        </CharString>
        <CharString name="amacron">
          -63 callgsubr
          257 206 24 callgsubr
          -93 591 -164 312 hintmask 11101010
          -107 callgsubr
          hintmask 00010100
          -93 1062 -60 callgsubr
          endchar
        </CharString>
        <CharString name="ampersand">
          228 -16 182 -182 233 1120 209 hstemhm
          88 295 -127 279 320 258 37 254 hintmask 00000000
          hintmask 01110110
          88 399 rmoveto
          -266 217 -149 430 106 111 33 39 92 vhcurveto
          -45 73 85 -27 121 hhcurveto
          61 50 7 8 32 hvcurveto
          hintmask 10101110
          167 vlineto
          -87 3 -57 12 -55 32 rrcurveto
          84 83 53 116 164 vvcurveto
          95 -13 57 -7 29 vhcurveto
          -258 hlineto
          5 -28 19 -59 -93 vvcurveto
          -77 -27 -71 -46 -52 vhcurveto
          -97 103 -119 145 -69 89 rrcurveto
          194 100 127 117 251 vvcurveto
          198 -158 166 -256 -268 -175 -140 -238 -170 70 -111 72 -98 vhcurveto
          hintmask 01110110
          -177 -83 -133 -127 -180 vvcurveto
          hintmask 01101110
          574 492 rmoveto
          -88 121 -39 51 110 vvcurveto
          101 66 63 99 113 42 -93 -65 -143 -74 -83 -119 -62 vhcurveto
          hintmask 01110110
          -279 -475 rmoveto
          83 53 61 92 49 vhcurveto
          88 -113 126 -151 103 -113 rrcurveto
          -9 -42 -50 -6 -65 hhcurveto
          -225 -80 77 122 hvcurveto
          endchar
        </CharString>
        <CharString name="aogonek">
          -91 -32 callsubr
          500 211 -176 -21 532 176 218 238 24 callgsubr
          334 -41 callsubr
          hintmask 01011111
          102 355 rmoveto
          hintmask 01101111
          -215 148 -156 224 135 101 56 56 61 vhcurveto
          -8 vlineto
          hintmask 01011111
          -52 11 -26 21 -12 vhcurveto
          -104 -59 -116 -107 9 -148 -66 callsubr
          hintmask 10101111
          -70 callgsubr
          -6 86 70 61 90 60 rrcurveto
          79 761 hlineto
          331 -146 86 -317 -180 -205 -75 -44 -73 vhcurveto
          69 -200 rlineto
          44 97 156 37 61 hhcurveto
          193 33 -24 -122 hvcurveto
          -72 vlineto
          -144 -187 -10 -56 -126 hvcurveto
          hintmask 01011111
          -123 -55 -76 -92 -138 vvcurveto
          hintmask 01101111
          322 2 rmoveto
          85 52 29 47 18 vhcurveto
          22 47 113 19 75 hhcurveto
          -272 vlineto
          -27 -21 -86 -36 -70 hhcurveto
          -89 -68 51 111 hvcurveto
          endchar
        </CharString>
        <CharString name="approxequal">
          134 221 244 -85 242 92 244 -85 242 hstemhm
          206 1031 -1026 1031 hintmask 00000000
          hintmask 01000100
          341 274 31 callgsubr
          hintmask 10000100
          -49 callgsubr
          hintmask 01000100
          -26 callgsubr
          hintmask 00000000
          125 365 31 callgsubr
          hintmask 00011000
          -49 callgsubr
          hintmask 00101000
          -26 callgsubr
          endchar
        </CharString>
        <CharString name="aring">
          -63 callgsubr
          151 152 276 146 24 callgsubr
          -140 184 290 312 -286 183 hintmask 1110010100000000
          -107 callgsubr
          hintmask 0001101010000000
          198 956 -77 callgsubr
          endchar
        </CharString>
        <CharString name="asciicircum">
          59 1531 -20 hstem
          153 1067 vstem
          153 490 rmoveto
          281 hlineto
          252 673 253 -673 rlineto
          281 hlineto
          -420 1041 rlineto
          -227 hlineto
          endchar
        </CharString>
        <CharString name="asciitilde">
          134 649 244 -85 242 hstemhm
          208 1031 hintmask 00000000
          hintmask 01100000
          338 702 31 callgsubr
          hintmask 10100000
          -49 callgsubr
          hintmask 01100000
          -26 callgsubr
          endchar
        </CharString>
        <CharString name="asterisk">
          34 602 1134 hstem
          130 1088 vstem
          253 776 rmoveto
          235 166 135 138 -43 -185 -17 -293 236 1 -27 293 -5 31 -38 129 -4 22 rlinecurve
          141 -130 233 -162 119 214 -258 123 -183 49 181 55 253 131 -112 206 -242 -166 -23 -20 -94 -100 -16 -14 rlinecurve
          43 184 17 288 rlineto
          -236 hlineto
          26 -293 4 -32 39 -128 3 -22 rlinecurve
          -137 130 -243 164 -110 -208 257 -128 28 -11 134 -29 20 -8 rlinecurve
          -181 -53 -252 -135 rlineto
          endchar
        </CharString>
        <CharString name="at">
          914 -468 177 286 201 -201 227 661 197 286 177 hstemhm
          171 211 235 243 407 214 366 209 8 callsubr
          hintmask 1101111110000000
          171 440 rmoveto
          -626 400 -282 482 250 162 66 60 100 vhcurveto
          -43 159 rlineto
          -43 -80 -112 -65 -257 hhcurveto
          -333 -358 180 559 570 402 348 452 312 299 -112 -479 -351 -171 -228 -147 -50 -13 51 181 32 hvcurveto
          34 188 60 295 34 145 -185 -31 rcurveline
          39 -56 -90 16 -86 hhcurveto
          -410 -175 -365 -275 -7 hvcurveto
          hintmask 1011111110000000
          -300 -6 160 -145 133 hhcurveto
          156 120 115 147 87 hvcurveto
          -1 -30 0 -25 2 -20 rrcurveto
          hintmask 1101111110000000
          -121 9 57 -66 123 hhcurveto
          294 305 273 537 483 -338 255 -464 -596 -487 -439 -664 hvcurveto
          hintmask 1011111110000000
          689 26 rmoveto
          195 3 129 222 185 hhcurveto
          74 59 -20 -34 25 hvcurveto
          -225 -31 -192 -382 -138 hhcurveto
          -75 -41 74 170 2 hvcurveto
          endchar
        </CharString>
        <CharString name="atilde">
          -63 callgsubr
          181 7 callgsubr
          102 322 -244 876 -298 312 hintmask 11100101
          -107 callgsubr
          hintmask 00000000
          -119 1017 -52 callsubr
          hintmask 00001010
          -98 callsubr
          hintmask 00010010
          -60 callsubr
        </CharString>
        <CharString name="b">
          26 -23 216 730 233 hstem
          1 callgsubr
          438 327 vstem
          -64 callgsubr
          endchar
        </CharString>
        <CharString name="backslash">
          -450 -363 1962 hstem
          14 816 vstem
          269 1599 rmoveto
          -255 hlineto
          561 -1962 rlineto
          255 hlineto
          endchar
        </CharString>
        <CharString name="bar">
          -449 -187 1967 hstem
          305 255 vstem
          305 -187 rmoveto
          255 1967 -255 hlineto
          endchar
        </CharString>
        <CharString name="braceleft">
          27 callsubr
          324 270 vstem
          324 60 rmoveto
          -197 66 -74 154 109 117 11 24 86 vhcurveto
          156 -262 582 vlineto
          41 -14 33 -25 28 vhcurveto
          -44 49 -85 36 -77 27 77 28 87 35 42 48 rrcurveto
          24 27 15 34 43 vvcurveto
          571 262 171 vlineto
          11 -86 -117 13 -109 hhcurveto
          -154 -66 -74 -197 hvcurveto
          -486 vlineto
          -75 -155 -42 -101 -10 vhcurveto
          -191 vlineto
          101 -10 155 -53 -72 vvcurveto
          endchar
        </CharString>
        <CharString name="braceright">
          27 callsubr
          348 270 vstem
          618 547 rmoveto
          72 155 53 101 10 vhcurveto
          191 vlineto
          -101 10 -155 42 75 vvcurveto
          486 vlineto
          197 -66 74 -154 -109 -117 -13 -11 -86 vhcurveto
          -171 262 -571 vlineto
          -43 15 -34 24 -27 vhcurveto
          42 -48 87 -35 77 -28 -77 -27 -85 -36 -44 -49 rrcurveto
          -25 -28 -14 -33 -41 vvcurveto
          -582 -262 -156 vlineto
          -24 86 117 -11 109 hhcurveto
          154 66 74 197 hvcurveto
          endchar
        </CharString>
        <CharString name="bracketleft">
          28 callsubr
          145 283 vstem
          145 60 rmoveto
          -197 36 -54 154 164 68 10 14 129 vhcurveto
          145 vlineto
          -268 2 rlineto
          1570 268 163 vlineto
          11 -129 -68 13 -164 hhcurveto
          -153 -37 -54 -197 hvcurveto
          endchar
        </CharString>
        <CharString name="bracketright">
          28 callsubr
          361 283 vstem
          644 1486 rmoveto
          197 -37 54 -153 -164 -68 -13 -11 -129 vhcurveto
          -163 268 -1570 vlineto
          -268 -2 rlineto
          -145 vlineto
          -14 129 68 -10 164 hhcurveto
          154 36 54 197 hvcurveto
          endchar
        </CharString>
        <CharString name="breve">
          -499 1298 218 hstemhm
          44 196 hintmask 00000000
          hintmask 11000000
          408 1298 -95 callsubr
        </CharString>
        <CharString name="breve.cap">
          -499 16 callsubr
          203 hstem
          44 727 vstem
          408 16 callsubr
          -93 callgsubr
          endchar
        </CharString>
        <CharString name="brokenbar">
          -449 -186 1966 hstem
          305 255 vstem
          305 964 rmoveto
          255 816 -255 hlineto
          -1966 vmoveto
          255 806 -255 hlineto
          endchar
        </CharString>
        <CharString name="bullet">
          -409 467 528 hstem
          187 531 vstem
          443 467 rmoveto
          148 124 126 145 3 hvcurveto
          148 3 -109 109 -148 hhcurveto
          -147 -127 -124 -146 -3 hvcurveto
          -145 -3 111 -113 148 hhcurveto
          endchar
        </CharString>
        <CharString name="c">
          -24 callgsubr
          hstem
          95 310 vstem
          95 556 -99 callsubr
          endchar
        </CharString>
        <CharString name="cacute">
          -24 callgsubr
          499 -21 hstemhm
          95 310 99 555 hintmask 00101000
          653 1252 -99 callgsubr
          hintmask 11010000
          -409 -833 -99 callsubr
          endchar
        </CharString>
        <CharString name="caron">
          -480 34 callsubr
          329 1237 -78 callgsubr
          endchar
        </CharString>
        <CharString name="caron.cap">
          -545 1576 384 hstem
          49 754 vstem
          317 1576 -12 callgsubr
        </CharString>
        <CharString name="caronvertical">
          -901 1010 698 hstem
          124 239 vstem
          243 1010 -83 callgsubr
        </CharString>
        <CharString name="ccaron">
          -24 callgsubr
          95 462 hstemhm
          95 310 -167 792 hintmask 00101000
          524 -18 callsubr
          hintmask 11010000
          -143 -1068 -99 callsubr
          endchar
        </CharString>
        <CharString name="ccedilla">
          -266 25 callgsubr
          296 -21 911 255 hstem
          95 310 127 217 vstem
          334 -271 rmoveto
          -59 callgsubr
          3 75 -11 82 -26 54 109 13 97 40 56 54 -45 185 rcurveline
          -25 -46 -98 -22 -104 hhcurveto
          -162 -124 114 246 7 hvcurveto
          229 6 154 77 131 hhcurveto
          106 64 -15 -29 55 hvcurveto
          39 241 rlineto
          28 -38 -115 30 -143 hhcurveto
          -387 -182 -264 -336 -291 141 -228 283 -45 hvcurveto
          11 -29 6 -39 -4 -59 -52 callgsubr
          endchar
        </CharString>
        <CharString name="ccircumflex">
          -24 callgsubr
          81 462 hstemhm
          95 310 -163 792 hintmask 00101000
          398 1237 -94 callgsubr
          hintmask 11010000
          -147 -770 -99 callsubr
          endchar
        </CharString>
        <CharString name="cdotaccent">
          -24 callgsubr
          151 27 callgsubr
          95 310 38 379 hintmask 11010000
          95 556 -99 callsubr
          hintmask 00101000
          529 751 -89 callsubr
        </CharString>
        <CharString name="cedilla">
          -796 25 callgsubr
          hstemhm
          251 217 hintmask 00000000
          hintmask 11000000
          220 30 rmoveto
          20 -35 17 -43 -6 -87 -52 callgsubr
          -59 callgsubr
          4 98 -20 110 -46 43 -49 4 rcurveline
          endchar
        </CharString>
        <CharString name="cent">
          -127 8 -21 26 -21 1155 -20 27 -20 hstemhm
          144 310 112 171 -137 171 hintmask 00000000
          hintmask 01011100
          568 -8 rmoveto
          -4 -208 rlineto
          172 hlineto
          hintmask 10011100
          3 203 120 11 107 41 60 58 rlinecurve
          -45 185 rlineto
          -25 -46 -98 -22 -104 hhcurveto
          -162 -124 114 246 7 hvcurveto
          229 6 154 77 131 hhcurveto
          106 64 -15 -29 55 hvcurveto
          39 241 rlineto
          hintmask 01011010
          -33 24 -91 26 -116 6 5 223 rcurveline
          -171 hlineto
          hintmask 01101010
          -6 -230 rlineto
          -308 -48 -145 -243 -300 vvcurveto
          hintmask 01011100
          -291 141 -228 283 -45 vhcurveto
          endchar
        </CharString>
        <CharString name="circumflex">
          -436 34 callsubr
          199 1237 -46 callgsubr
        </CharString>
        <CharString name="circumflex.cap">
          -446 1671 -21 23 -21 hstemhm
          49 770 hintmask 00000000
          hintmask 01100000
          211 1560 -93 callsubr
          hintmask 10100000
          -50 callgsubr
        </CharString>
        <CharString name="colon">
          -673 -1 -21 780 -21 hstemhm
          24 callsubr
          hintmask 10100000
          126 171 -82 callgsubr
          hintmask 01100000
          759 vmoveto
          -27 callsubr
        </CharString>
        <CharString name="comma">
          -621 -485 -21 hstemhm
          163 406 -289 289 hintmask 00000000
          hintmask 11000000
          163 73 rmoveto
          hintmask 10100000
          -38 callgsubr
          endchar
        </CharString>
        <CharString name="commaaccent">
          -899 -539 -21 65 -21 hstemhm
          117 231 21 callgsubr
          55 -105 callsubr
          endchar
        </CharString>
        <CharString name="copyright">
          779 82 129 264 199 580 195 265 126 hstem
          176 142 286 234 936 143 vstem
          176 963 rmoveto
          -487 384 -394 486 486 385 394 487 486 -385 391 -486 -486 -384 -391 -486 vhcurveto
          142 hmoveto
          413 309 338 419 419 309 -338 -413 -414 -309 -338 -419 -419 -309 338 414 vhcurveto
          286 -13 rmoveto
          -259 1 172 -216 272 hhcurveto
          133 130 51 53 65 hvcurveto
          -48 159 rlineto
          -28 -47 -79 -36 -99 hhcurveto
          -156 -111 89 231 1 hvcurveto
          163 1 106 97 147 hhcurveto
          81 89 -27 -31 42 hvcurveto
          45 206 rlineto
          23 -41 -96 24 -113 hhcurveto
          -322 -175 -215 -284 2 hvcurveto
          endchar
        </CharString>
        <CharString name="currency">
          230 317 220 472 220 hstem
          316 222 454 222 vstem
          200 314 rmoveto
          141 -144 202 205 rlineto
          -37 65 75 -21 81 hhcurveto
          81 77 21 38 66 hvcurveto
          203 -205 140 145 -195 199 rlineto
          49 73 29 88 97 vvcurveto
          94 -28 87 -48 72 vhcurveto
          206 208 -141 147 -213 -214 rlineto
          39 -66 -78 23 -82 hhcurveto
          -82 -76 -22 -39 -66 hvcurveto
          -200 206 -139 -147 192 -197 rlineto
          -49 -73 -28 -88 -96 vvcurveto
          -98 29 -89 50 -74 vhcurveto
          371 25 rmoveto
          -125 -103 110 126 126 103 110 125 125 101 -110 -126 -126 -101 -110 -125 hvcurveto
          endchar
        </CharString>
        <CharString name="d">
          25 -16 -23 callgsubr
          hstemhm
          95 327 437 -41 callsubr
          hintmask 01111000
          -74 callsubr
          hintmask 10111000
          -75 callsubr
          endchar
        </CharString>
        <CharString name="dagger">
          -278 1076 210 hstemhm
          390 256 -248 242 hintmask 00000000
          hintmask 10100000
          406 200 rmoveto
          228 hlineto
          12 877 283 -1 rlineto
          212 vlineto
          hintmask 11000000
          -283 -2 rlineto
          372 -256 -372 vlineto
          -282 2 -1 -212 rlineto
          hintmask 10100000
          283 1 rlineto
          endchar
        </CharString>
        <CharString name="daggerdbl">
          -278 427 211 438 211 hstemhm
          390 234 -227 237 -229 240 21 callgsubr
          107 427 rmoveto
          hintmask 11001000
          283 1 15 -784 rlineto
          hintmask 11100000
          219 hlineto
          hintmask 11010000
          21 784 283 -1 rlineto
          212 vlineto
          hintmask 11100000
          -283 438 hlineto
          284 -1 rlineto
          212 vlineto
          -284 -1 rlineto
          371 -255 -371 vlineto
          -282 1 -1 -212 283 1 rlineto
          -438 -283 vlineto
          endchar
        </CharString>
        <CharString name="dcaron">
          333 -16 -23 callgsubr
          -146 698 hstemhm
          95 327 437 312 240 239 hintmask 00000000
          hintmask 01101100
          -74 callsubr
          hintmask 10101100
          -75 callsubr
          hintmask 00010010
          885 783 -83 callgsubr
        </CharString>
        <CharString name="dcroat">
          25 -16 -23 callgsubr
          137 180 hstemhm
          95 327 437 -41 callsubr
          hintmask 01111100
          95 533 rmoveto
          -370 212 -179 242 186 97 82 53 52 vhcurveto
          -77 vlineto
          -51 30 -7 45 vhcurveto
          212 1309 128 180 -128 189 -312 -189 -227 -180 227 -69 hlineto
          3 -100 rlineto
          17 -45 -64 15 -78 hhcurveto
          -347 -233 -244 -379 hvcurveto
          hintmask 10111100
          -75 callsubr
          endchar
        </CharString>
        <CharString name="degree">
          -357 921 176 361 176 hstem
          118 188 345 187 vstem
          478 921 rmoveto
          207 153 151 206 200 -159 156 -201 -206 -154 -152 -204 -200 160 -157 200 hvcurveto
          176 vmoveto
          -95 -77 79 102 104 74 76 98 96 77 -78 -102 -104 -75 -77 -98 hvcurveto
          endchar
        </CharString>
        <CharString name="dieresis">
          -340 1310 353 hstem
          70 834 vstem
          721 1310 rmoveto
          -94 callsubr
          -485 hmoveto
          -94 callsubr
          endchar
        </CharString>
        <CharString name="dieresis.cap">
          -326 16 callsubr
          346 hstem
          55 878 vstem
          747 16 callsubr
          -62 callgsubr
        </CharString>
        <CharString name="divide">
          89 655 234 hstem
          203 997 vstem
          712 1025 rmoveto
          113 91 94 113 107 -67 80 -117 -111 -94 -95 -111 -109 78 -79 107 hvcurveto
          -509 -370 rmoveto
          997 234 -997 hlineto
          320 -564 rmoveto
          -109 78 -79 107 113 91 94 113 106 -67 81 -116 -111 -95 -95 -111 vhcurveto
          endchar
        </CharString>
        <CharString name="dollar">
          96 7 -21 26 -21 1309 237 -9 -20 29 -20 hstemhm
          223 312 30 237 -234 238 -187 130 -126 128 145 320 8 callsubr
          hintmask 0100100001000000
          236 74 rmoveto
          hintmask 0100101000000000
          45 -28 136 -40 154 -15 -6 -216 rcurveline
          hintmask 0100100010000000
          184 hlineto
          hintmask 1010010001100000
          5 211 rlineto
          277 18 185 148 256 vvcurveto
          247 -179 109 -239 126 vhcurveto
          -185 98 -78 47 109 vvcurveto
          94 59 62 169 152 106 -50 -47 74 vhcurveto
          52 247 rlineto
          hintmask 0100100100100000
          -50 32 -128 47 -170 8 7 226 rcurveline
          hintmask 0100100001000000
          -183 hlineto
          hintmask 0101010010100000
          -8 -235 rlineto
          -222 -32 -170 -118 -250 vvcurveto
          -249 198 -135 180 -89 vhcurveto
          234 -116 61 -44 -107 vvcurveto
          -102 -54 -53 -169 -163 -144 49 47 -85 vhcurveto
          endchar
        </CharString>
        <CharString name="dotaccent">
          -825 1307 358 hstem
          55 379 vstem
          236 1307 -89 callsubr
        </CharString>
        <CharString name="dotaccent.cap">
          -825 16 callsubr
          345 hstem
          64 361 vstem
          236 16 callsubr
          -4 callgsubr
        </CharString>
        <CharString name="dotlessi">
          -654 31 callsubr
          174 312 vstem
          174 hmoveto
          10 callgsubr
        </CharString>
        <CharString name="dotlessj">
          6 callgsubr
          hstem
          174 312 vstem
          174 -74 callgsubr
          endchar
        </CharString>
        <CharString name="e">
          -68 callgsubr
          hstem
          95 998 vstem
          95 574 -95 callgsubr
        </CharString>
        <CharString name="eacute">
          -68 callgsubr
          499 -21 9 callgsubr
          -592 555 hintmask 00010100
          650 1252 -99 callgsubr
          hintmask 11101000
          -406 -815 -95 callgsubr
        </CharString>
        <CharString name="ebreve">
          -68 callgsubr
          9 callgsubr
          vstemhm
          95 574 -107 callsubr
          -168 630 -95 callsubr
        </CharString>
        <CharString name="ecaron">
          -68 callgsubr
          95 462 9 callgsubr
          -858 792 hintmask 00010100
          521 -18 callsubr
          hintmask 11101000
          -140 -1050 -95 callgsubr
        </CharString>
        <CharString name="ecircumflex">
          -68 callgsubr
          81 462 9 callgsubr
          -854 792 hintmask 00010100
          395 1237 -94 callgsubr
          hintmask 11101000
          -144 -752 -95 callgsubr
        </CharString>
        <CharString name="edieresis">
          -68 callgsubr
          154 353 9 callgsubr
          -876 834 hintmask 00010100
          868 1310 rmoveto
          -94 callsubr
          -485 hmoveto
          -94 callsubr
          hintmask 11101000
          -288 -736 -95 callgsubr
        </CharString>
        <CharString name="edotaccent">
          -68 callgsubr
          151 358 9 callgsubr
          -653 379 hintmask 11101000
          95 574 -107 callsubr
          hintmask 00010100
          -182 639 -89 callsubr
        </CharString>
        <CharString name="egrave">
          -68 callgsubr
          499 -21 9 callgsubr
          -894 556 hintmask 11101000
          95 574 -107 callsubr
          hintmask 00010100
          -197 584 -91 callsubr
        </CharString>
        <CharString name="eight">
          42 -16 220 1151 210 hstemhm
          129 295 -244 288 427 277 -248 311 hintmask 00000000
          hintmask 11100100
          129 385 rmoveto
          -268 240 -133 323 305 241 147 279 -3 vhcurveto
          -2 192 -157 116 -172 98 rrcurveto
          hintmask 11011000
          184 88 84 169 139 vvcurveto
          209 -182 144 -308 -309 -193 -159 -232 -189 104 -117 131 -89 vhcurveto
          hintmask 11100100
          -209 -109 -77 -147 -138 vvcurveto
          hintmask 11011000
          585 534 rmoveto
          -136 77 -110 80 117 vvcurveto
          98 94 64 116 138 79 -72 -96 vhcurveto
          3 -109 -57 -106 -127 -53 rrcurveto
          hintmask 11100100
          -290 -516 rmoveto
          127 73 85 106 56 vhcurveto
          167 -86 154 -73 -134 vvcurveto
          -111 -109 -63 -122 -191 -78 89 110 vhcurveto
          endchar
        </CharString>
        <CharString name="ellipsis">
          589 -1 -21 hstem
          24 callsubr
          242 389 242 389 cntrmask 01110000
          1388 171 -82 callgsubr
          -631 hmoveto
          -96 callsubr
          -631 hmoveto
          -27 callsubr
        </CharString>
        <CharString name="emacron">
          -68 callgsubr
          264 206 9 callgsubr
          -754 591 hintmask 11101000
          95 574 -107 callsubr
          hintmask 00010100
          -464 752 -60 callgsubr
          endchar
        </CharString>
        <CharString name="emdash">
          1099 644 245 hstem
          245 1923 vstem
          245 644 rmoveto
          1923 245 -1923 hlineto
          endchar
        </CharString>
        <CharString name="endash">
          388 644 245 hstem
          245 1212 vstem
          245 644 rmoveto
          1212 245 -1212 hlineto
          endchar
        </CharString>
        <CharString name="eng">
          38 -507 199 -164 -21 514 -21 1138 -20 41 6 callsubr
          392 -41 callsubr
          hintmask 01101110
          174 hmoveto
          312 814 hlineto
          69 61 101 29 56 1 rrcurveto
          130 4 36 -65 -186 vvcurveto
          -703 vlineto
          hintmask 10101110
          -230 -39 -33 -90 -24 -63 4 7 -21 vhcurveto
          hintmask 01101110
          -196 vlineto
          hintmask 10101110
          -8 38 94 -6 67 hhcurveto
          195 155 131 345 hvcurveto
          747 vlineto
          -1 334 -114 117 -241 -8 -140 -4 -154 -79 -77 -58 rrcurveto
          hintmask 01110110
          -6 120 rlineto
          -283 hlineto
          endchar
        </CharString>
        <CharString name="eogonek">
          -124 -32 callsubr
          500 232 -204 -21 504 173 266 222 9 callgsubr
          -511 245 hintmask 00000000
          hintmask 01011110
          95 574 rmoveto
          hintmask 01101110
          -370 190 -220 348 39 39 3 4 37 vhcurveto
          hintmask 01011101
          -93 -63 -81 -108 8 -136 -66 callsubr
          hintmask 10101101
          -70 callgsubr
          139 131 109 88 65 vhcurveto
          -1 -1 11 9 -51 177 rlineto
          -33 -60 -152 -26 -81 hhcurveto
          -176 -116 85 194 -13 hvcurveto
          675 hlineto
          8 51 3 77 86 vvcurveto
          -4 332 -213 117 -236 -2 rrcurveto
          hintmask 01011110
          -350 -2 -195 -248 -332 vvcurveto
          318 94 rmoveto
          202 22 80 64 115 hhcurveto
          140 43 -99 -167 -10 hvcurveto
          endchar
        </CharString>
        <CharString name="equal">
          12 callgsubr
          251 923 rmoveto
          921 216 -921 hlineto
          -728 vmoveto
          921 216 -921 hlineto
          endchar
        </CharString>
        <CharString name="estimated">
          69 -16 163 465 156 425 163 hstem
          109 326 535 304 vstem
          435 258 rmoveto
          354 828 vlineto
          11 51 0 83 86 vvcurveto
          -11 329 -232 200 -295 -5 rrcurveto
          -426 -7 -201 -286 -392 vvcurveto
          -430 225 -257 398 194 187 70 61 85 vhcurveto
          -70 151 rlineto
          -55 -73 -140 -64 -165 hhcurveto
          -127 -111 30 81 -77 hvcurveto
          510 vmoveto
          309 vlineto
          82 74 102 34 111 hhcurveto
          118 78 -28 -46 52 hvcurveto
          -351 vlineto
          endchar
        </CharString>
        <CharString name="eth">
          -20 -27 229 730 217 hstem
          95 324 473 323 vstem
          95 550 rmoveto
          -344 218 -235 341 2 vhcurveto
          312 2 249 229 447 vvcurveto
          390 -200 376 -312 177 vhcurveto
          57 71 66 87 0 vvcurveto
          -152 100 rlineto
          0 -69 -99 -56 -74 vhcurveto
          -80 45 -84 30 -112 33 -53 -176 rcurveline
          70 -21 70 -32 64 -40 -122 -157 rcurveline
          149 -99 117 158 113 -83 93 -116 41 -125 rlinecurve
          32 -49 -64 21 -78 hhcurveto
          -338 -191 -236 -363 hvcurveto
          324 -3 rmoveto
          245 91 140 150 114 81 -63 -53 31 vhcurveto
          5 -63 1 -105 -74 vvcurveto
          -240 -102 -132 -130 -149 -92 117 228 vhcurveto
          endchar
        </CharString>
        <CharString name="exclam">
          -673 -1 -21 hstem
          24 callsubr
          vstem
          197 555 -71 callgsubr
          endchar
        </CharString>
        <CharString name="exclamdbl">
          -44 -1 -21 hstemhm
          24 callsubr
          240 389 hintmask 11000000
          197 555 -71 callgsubr
          hintmask 10100000
          700 384 -71 callgsubr
          endchar
        </CharString>
        <CharString name="exclamdown">
          -673 1345 21 hstem
          116 389 vstem
          434 789 rmoveto
          -267 hlineto
          -34 -1225 rlineto
          347 hlineto
          25 1609 rmoveto
          110 -1 -78 83 -107 hhcurveto
          -114 -90 -98 -115 1 hvcurveto
          -108 1 68 -84 117 hhcurveto
          111 94 99 113 -2 hvcurveto
          endchar
        </CharString>
        <CharString name="f">
          -456 5 callsubr
          hstem
          237 312 vstem
          237 hmoveto
          -105 callgsubr
          endchar
        </CharString>
        <CharString name="f_f">
          402 1 callsubr
          hintmask 11110000
          237 hmoveto
          -105 callgsubr
          hintmask 11101000
          858 -924 -104 callgsubr
          endchar
        </CharString>
        <CharString name="f_f_i">
          -90 callgsubr
        </CharString>
        <CharString name="f_f_l">
          1074 1 callsubr
          489 312 hintmask 10000100
          1896 -24 callsubr
          hintmask 11110000
          -1659 -1662 -104 callgsubr
          hintmask 11101000
          858 -924 -104 callgsubr
          endchar
        </CharString>
        <CharString name="f_i">
          204 -27 callgsubr
          0 -20 187 358 -202 11 callgsubr
          457 -22 callgsubr
          hintmask 10100001
          1032 hmoveto
          -69 callgsubr
          hintmask 00010010
          -80 callgsubr
          hintmask 11001100
          -950 -54 callsubr
          endchar
        </CharString>
        <CharString name="f_l">
          216 5 callsubr
          hstemhm
          237 312 489 312 hintmask 10001000
          1038 -24 callsubr
          hintmask 11110000
          -801 -1662 -104 callgsubr
          endchar
        </CharString>
        <CharString name="ffi_dflt">
          -90 callgsubr
        </CharString>
        <CharString name="fi_trk">
          204 -27 callgsubr
          0 -20 187 358 -202 11 callgsubr
          457 -22 callgsubr
          hintmask 10100001
          1032 hmoveto
          -69 callgsubr
          hintmask 00010010
          -80 callgsubr
          hintmask 11001100
          -950 -54 callsubr
          endchar
        </CharString>
        <CharString name="five">
          -21 -354 229 576 234 300 267 hstemhm
          192 959 -319 319 hintmask 00000000
          hintmask 11110000
          193 -123 rmoveto
          -1 -218 rlineto
          -11 38 61 -2 36 hhcurveto
          hintmask 11101000
          505 3 319 262 334 vvcurveto
          266 -161 174 -280 -78 -76 -13 -22 -98 vhcurveto
          33 335 rlineto
          593 hlineto
          28 267 rlineto
          -847 hlineto
          -66 -837 50 -30 rlineto
          35 107 105 31 85 hhcurveto
          209 -1 77 -71 -145 vvcurveto
          -214 -230 -145 -330 vhcurveto
          hintmask 11110000
          -26 -26 1 1 -27 hvcurveto
          endchar
        </CharString>
        <CharString name="florin">
          -135 924 216 317 227 0 -21 hstemhm
          208 889 hintmask 00000000
          hintmask 10110000
          273 -356 rmoveto
          314 hlineto
          110 1280 rlineto
          275 hlineto
          17 216 rlineto
          -274 hlineto
          10 89 rlineto
          hintmask 11010000
          164 17 77 64 103 hhcurveto
          81 54 -9 -14 22 hvcurveto
          hintmask 10110000
          18 229 rlineto
          hintmask 11010000
          9 -20 -74 12 -90 hhcurveto
          -235 -232 -113 -348 -36 hvcurveto
          -9 -83 -179 -38 -14 -178 rlineto
          176 hlineto
          endchar
        </CharString>
        <CharString name="four">
          98 0 234 hstem
          828 300 vstem
          100 133 rmoveto
          76 -133 rlineto
          652 -376 300 376 233 234 -233 410 -262 hlineto
          -38 -410 rlineto
          -388 hlineto
          76 127 461 850 -244 123 rlineto
          -73 hlineto
          endchar
        </CharString>
        <CharString name="foursuperior">
          -133 858 192 hstem
          686 256 vstem
          141 858 -67 callsubr
          endchar
        </CharString>
        <CharString name="fraction">
          -278 21 -21 1530 -20 hstem
          127 782 vstem
          127 hmoveto
          -11 callgsubr
        </CharString>
        <CharString name="g">
          -97 callsubr
          endchar
        </CharString>
        <CharString name="gbreve">
          -97 callsubr
          8 callsubr
          233 1412 -95 callsubr
        </CharString>
        <CharString name="gcircumflex">
          -61 callgsubr
          81 462 -28 callsubr
          -185 792 -206 295 -193 308 hintmask 0000010010000000
          394 1237 -94 callgsubr
          8 callsubr
          -147 -1509 -91 callgsubr
        </CharString>
        <CharString name="gcommaaccent">
          -61 callgsubr
          132 568 -28 callsubr
          27 257 117 -9 callgsubr
          hintmask 0000010010000000
          653 1288 rmoveto
          139 121 rlineto
          69 vlineto
          -51 10 -34 79 62 vvcurveto
          83 24 35 29 35 vhcurveto
          23 vlineto
          -118 51 rlineto
          -76 -22 -116 -121 -164 vvcurveto
          -151 103 -99 100 -11 vhcurveto
          8 callsubr
          -562 -1471 -91 callgsubr
        </CharString>
        <CharString name="gdotaccent">
          -61 callgsubr
          151 358 -28 callsubr
          16 379 6 -9 callgsubr
          hintmask 1110101000000000
          91 -183 rmoveto
          -215 198 -114 344 -4 vhcurveto
          hintmask 1110100000100000
          310 -4 291 148 270 vvcurveto
          163 -67 182 -372 vhcurveto
          -190 hlineto
          -95 -40 14 66 34 14 35 28 23 hvcurveto
          -4 32 33 -2 35 hhcurveto
          hintmask 1111000001000000
          320 187 129 246 48 -7 43 -13 39 hvcurveto
          189 226 -127 hlineto
          -86 -62 -36 -31 -36 hvcurveto
          hintmask 1110100101000000
          -88 59 -125 26 -148 -2 rrcurveto
          -299 -4 -195 -111 -266 vvcurveto
          -140 90 -115 144 -62 vhcurveto
          -141 -58 -40 -95 -1 -77 -1 -66 25 -72 69 -36 rrcurveto
          hintmask 1110101000000000
          -101 -44 -75 -83 -110 vvcurveto
          hintmask 1110100101000000
          526 783 rmoveto
          -127 -67 69 110 145 92 39 116 128 65 -65 -123 -143 -92 -32 -115 hvcurveto
          -216 -714 rmoveto
          63 19 32 23 21 vhcurveto
          -1 20 20 -1 22 hhcurveto
          163 hlineto
          hintmask 1110100000100000
          228 30 -58 -106 -120 -113 -48 -168 hvcurveto
          hintmask 1110100101000000
          -6 callgsubr
          hintmask 0000010010000000
          219 1421 -89 callsubr
        </CharString>
        <CharString name="germandbls">
          81 -16 213 -176 -21 1372 207 hstemhm
          193 317 219 269 -77 324 -220 317 hintmask 00000000
          hintmask 01110100
          193 hmoveto
          317 951 hlineto
          319 98 102 151 104 58 -53 -97 vhcurveto
          hintmask 01111000
          -164 -192 -33 -188 vvcurveto
          hintmask 10110010
          -269 295 -40 1 -204 vhcurveto
          -99 -97 -28 -67 -86 -69 27 16 -26 vhcurveto
          -223 vlineto
          -17 33 91 -16 112 hhcurveto
          213 213 80 275 hvcurveto
          hintmask 01111000
          340 -344 54 156 vvcurveto
          hintmask 01110100
          122 247 26 231 vvcurveto
          188 -171 123 -270 -288 -242 -126 -305 -64 vhcurveto
          -156 -29 rlineto
          -195 139 vlineto
          endchar
        </CharString>
        <CharString name="grave">
          -648 1655 -21 hstem
          55 556 vstem
          462 1252 -91 callsubr
        </CharString>
        <CharString name="grave.cap">
          -662 1689 -21 hstem
          57 512 vstem
          423 1543 -53 callsubr
        </CharString>
        <CharString name="greater">
          63 229 1102 hstem
          218 952 vstem
          1170 852 rmoveto
          -952 479 rlineto
          -274 vlineto
          597 -284 -597 -262 rlineto
          -282 vlineto
          952 469 rlineto
          endchar
        </CharString>
        <CharString name="greaterequal">
          64 -1 205 hstem
          224 969 vstem
          1193 851 rmoveto
          -969 420 rlineto
          -262 vlineto
          631 -236 -631 -232 rlineto
          -263 vlineto
          969 418 rlineto
          -492 vmoveto
          -969 -205 969 hlineto
          endchar
        </CharString>
        <CharString name="guillemotleft">
          684 1157 -20 hstemhm
          235 731 52 731 hintmask 11000000
          235 492 -42 callsubr
          hintmask 10100000
          783 -243 -42 callsubr
          endchar
        </CharString>
        <CharString name="guillemotright">
          684 1157 -20 hstemhm
          239 731 52 731 hintmask 11000000
          970 735 -30 callgsubr
          656 416 rlineto
          783 243 -30 callgsubr
          rlineto
          hintmask 10100000
          656 416 rlineto
          endchar
        </CharString>
        <CharString name="guilsinglleft">
          -100 1157 -20 hstem
          235 731 vstem
          235 492 -42 callsubr
          endchar
        </CharString>
        <CharString name="guilsinglright">
          -100 1157 -20 hstem
          238 731 vstem
          969 735 -30 callgsubr
          656 416 rlineto
          endchar
        </CharString>
        <CharString name="h">
          37 7 callsubr
          hstem
          1 callgsubr
          397 312 vstem
          -72 callgsubr
          438 26 callsubr
        </CharString>
        <CharString name="hbar">
          37 7 callsubr
          154 180 hstem
          1 callgsubr
          397 312 vstem
          -72 callgsubr
          69 223 180 -223 189 -312 -189 -132 -180 132 vlineto
          endchar
        </CharString>
        <CharString name="hcircumflex">
          37 7 callsubr
          534 -21 hstemhm
          1 callgsubr
          -75 770 -298 312 hintmask 11010100
          -72 callgsubr
          438 -8 callgsubr
          hintmask 00000000
          399 -102 -93 callsubr
          hintmask 00101000
          -50 callgsubr
        </CharString>
        <CharString name="hungarumlaut">
          -269 1702 -21 24 -21 hstemhm
          57 987 hintmask 00000000
          hintmask 01100000
          184 1321 -40 callgsubr
          hintmask 10100000
          -28 callgsubr
          endchar
        </CharString>
        <CharString name="hungarumlaut.cap">
          -342 1689 -21 hstem
          47 963 vstem
          209 1553 -73 callgsubr
        </CharString>
        <CharString name="hyphen">
          -12 callsubr
        </CharString>
        <CharString name="i">
          -76 callgsubr
        </CharString>
        <CharString name="i.cy">
          -76 callgsubr
        </CharString>
        <CharString name="i.dot">
          -76 callgsubr
        </CharString>
        <CharString name="i.uc">
          -583 -63 callsubr
          112 345 hstemhm
          181 361 -341 320 hintmask 11001000
          -70 callsubr
          hintmask 00110000
          152 92 -4 callgsubr
        </CharString>
        <CharString name="iacute">
          -654 -58 callgsubr
          534 -21 -25 callgsubr
          -289 555 hintmask 00101000
          346 1251 -99 callgsubr
          hintmask 11010000
          -23 -1388 2 callsubr
        </CharString>
        <CharString name="ibreve">
          -654 21 -21 1140 6 callsubr
          vstemhm
          174 hmoveto
          -69 callgsubr
          157 157 -95 callsubr
        </CharString>
        <CharString name="icircumflex">
          -654 -58 callgsubr
          116 462 hstemhm
          -65 792 -553 312 hintmask 00110000
          91 1236 -94 callgsubr
          hintmask 11001000
          239 -1325 2 callsubr
        </CharString>
        <CharString name="idieresis">
          -654 -58 callgsubr
          189 353 hstemhm
          -75 810 -561 312 hintmask 00110000
          552 1309 rmoveto
          -94 callsubr
          -461 hmoveto
          -94 callsubr
          hintmask 11001000
          83 -1309 2 callsubr
        </CharString>
        <CharString name="igrave">
          -654 -58 callgsubr
          534 -21 hstemhm
          -105 556 -277 312 hintmask 11001000
          174 hmoveto
          -69 callgsubr
          hintmask 00110000
          128 111 -91 callsubr
        </CharString>
        <CharString name="ij">
          -10 -507 203 325 -56 callgsubr
          187 27 callgsubr
          148 -22 callgsubr
          313 379 -344 312 hintmask 10100001
          834 -74 callgsubr
          hintmask 01100100
          -660 -1140 rmoveto
          -69 callgsubr
          hintmask 00011000
          -80 callgsubr
          hintmask 00010010
          651 hmoveto
          106 92 85 103 98 -69 72 -111 -104 -95 -85 -102 -100 79 -71 102 hvcurveto
          endchar
        </CharString>
        <CharString name="imacron">
          -654 -58 callgsubr
          299 206 hstemhm
          35 591 -452 312 hintmask 11001000
          174 hmoveto
          -69 callgsubr
          hintmask 00110000
          -139 279 -60 callgsubr
          endchar
        </CharString>
        <CharString name="infinity">
          692 178 212 -208 214 433 220 -213 217 hstemhm
          84 270 1295 273 hintmask 00000000
          hintmask 01011100
          568 182 rmoveto
          178 2 139 100 101 118 rrcurveto
          hintmask 10101100
          -124 92 127 -100 238 hhcurveto
          300 179 197 239 219 -147 221 -335 -5 hvcurveto
          -177 -2 -139 -103 -100 -119 rrcurveto
          hintmask 10011100
          126 -94 -130 102 -240 hhcurveto
          -290 -186 -200 -236 hvcurveto
          hintmask 01011100
          -226 163 -214 321 5 vhcurveto
          -214 436 rmoveto
          133 82 85 111 131 113 -138 -125 76 vhcurveto
          -115 -86 -88 -62 -93 hhcurveto
          -172 -74 103 119 hvcurveto
          hintmask 10101100
          790 35 rmoveto
          115 85 85 61 94 hhcurveto
          167 74 -96 -118 -134 -77 -91 -117 -131 -105 138 125 -75 hvcurveto
          endchar
        </CharString>
        <CharString name="integral">
          -232 -518 212 1779 212 hstem
          205 275 128 274 vstem
          196 -193 rmoveto
          -91 -193 rlineto
          -75 37 180 -57 103 hhcurveto
          343 121 268 229 -7 hvcurveto
          -12 398 -380 427 -10 398 rrcurveto
          168 -5 58 103 150 hhcurveto
          94 66 -53 -35 16 hvcurveto
          124 163 rlineto
          71 -34 -100 66 -179 hhcurveto
          -339 -133 -225 -268 7 hvcurveto
          10 -397 382 -431 11 -399 rrcurveto
          -168 5 -46 -103 -150 hhcurveto
          -84 -108 71 42 -29 hvcurveto
          endchar
        </CharString>
        <CharString name="iogonek">
          -654 32 callsubr
          1140 -20 hstemhm
          148 107 -81 -41 callsubr
          hintmask 01111000
          329 1307 -102 callgsubr
          hintmask 01110100
          -155 -1307 rmoveto
          52 hlineto
          -106 -58 -119 -108 9 -150 -66 callsubr
          hintmask 10111000
          -70 callgsubr
          -7 94 84 63 101 66 rrcurveto
          hintmask 01110100
          53 1140 -37 callsubr
          endchar
        </CharString>
        <CharString name="itilde">
          -654 -58 callgsubr
          223 7 callgsubr
          -116 876 -586 312 hintmask 11000100
          174 hmoveto
          -69 callgsubr
          hintmask 00000000
          -165 234 -52 callsubr
          hintmask 00011000
          -98 callsubr
          hintmask 00101000
          -60 callsubr
        </CharString>
        <CharString name="j">
          6 callgsubr
          187 27 callgsubr
          139 379 -344 312 hintmask 11001000
          174 -74 callgsubr
          hintmask 00110000
          146 -61 callsubr
          endchar
        </CharString>
        <CharString name="jcircumflex">
          6 callgsubr
          117 462 hstemhm
          -66 792 -552 312 hintmask 11001000
          174 -74 callgsubr
          hintmask 00110000
          -84 97 -46 callgsubr
        </CharString>
        <CharString name="k">
          -76 31 callsubr
          1 callgsubr
          vstem
          168 hmoveto
          -44 callsubr
        </CharString>
        <CharString name="kcommaaccent">
          -76 -44 callgsubr
          1140 -20 hstemhm
          1 callgsubr
          111 -16 callsubr
          529 -105 callsubr
          hintmask 00111000
          -545 86 rmoveto
          -44 callsubr
        </CharString>
        <CharString name="kgreenlandic">
          -73 31 callsubr
          174 312 vstem
          174 hmoveto
          312 160 hlineto
          -2 124 131 152 287 -436 rlineto
          355 hlineto
          -443 666 410 474 rlineto
          -349 hlineto
          -396 -516 7 155 rlineto
          361 26 callsubr
        </CharString>
        <CharString name="l">
          -642 21 -21 hstem
          180 312 vstem
          180 -24 callsubr
          endchar
        </CharString>
        <CharString name="lacute">
          -642 21 -21 1527 -20 182 -21 hstemhm
          180 312 -310 512 hintmask 11010000
          180 hmoveto
          312 1527 -37 callsubr
          hintmask 00101000
          148 16 -101 callgsubr
          endchar
        </CharString>
        <CharString name="lcaron">
          -358 21 -21 1010 698 hstemhm
          180 312 221 239 hintmask 10100000
          180 -24 callsubr
          hintmask 01010000
          652 -652 -83 callgsubr
        </CharString>
        <CharString name="lcommaaccent">
          -642 -44 callgsubr
          hstemhm
          180 312 -220 231 hintmask 00000000
          hintmask 11001000
          210 -105 callsubr
          hintmask 00110000
          -214 86 rmoveto
          -15 callsubr
          endchar
        </CharString>
        <CharString name="ldot">
          -243 21 -21 681 -21 hstemhm
          180 312 174 389 hintmask 10100000
          180 -24 callsubr
          hintmask 01010000
          486 -809 rmoveto
          -27 callsubr
        </CharString>
        <CharString name="less">
          64 229 1102 hstem
          197 952 vstem
          197 698 rmoveto
          952 -469 rlineto
          282 vlineto
          -597 262 597 284 rlineto
          274 vlineto
          -952 -479 rlineto
          endchar
        </CharString>
        <CharString name="lessequal">
          64 -1 205 hstem
          175 969 vstem
          175 696 rmoveto
          969 -418 rlineto
          263 vlineto
          -631 232 631 236 rlineto
          262 vlineto
          -969 -420 rlineto
          -852 vmoveto
          969 205 -969 hlineto
          endchar
        </CharString>
        <CharString name="logicalnot">
          166 639 213 hstem
          991 244 vstem
          245 639 rmoveto
          746 -316 244 529 -990 hlineto
          endchar
        </CharString>
        <CharString name="lozenge">
          0 21 -21 1536 -20 hstem
          70 1175 vstem
          655 hmoveto
          5 hlineto
          585 762 rlineto
          13 vlineto
          -585 761 rlineto
          -4 hlineto
          -586 -761 rlineto
          -13 vlineto
          586 -399 rmoveto
          -299 403 rlineto
          6 vlineto
          299 384 rlineto
          3 hlineto
          299 -384 rlineto
          -3 vlineto
          -299 -406 rlineto
          endchar
        </CharString>
        <CharString name="lslash">
          -642 21 -21 hstem
          180 312 vstem
          180 hmoveto
          312 829 hlineto
          192 71 rlineto
          206 vlineto
          -192 -74 rlineto
          630 -312 -750 vlineto
          -150 -58 rlineto
          -195 vlineto
          150 55 rlineto
          endchar
        </CharString>
        <CharString name="m">
          733 21 -21 896 264 -20 -20 40 6 callsubr
          390 312 385 -41 callsubr
          hintmask 10011110
          174 hmoveto
          312 hlineto
          hintmask 11001110
          -67 callgsubr
          hintmask 10101110
          -32 callgsubr
          endchar
        </CharString>
        <CharString name="macron">
          -613 1420 20 callsubr
          1420 -60 callgsubr
          endchar
        </CharString>
        <CharString name="macron.cap">
          -613 1687 20 callsubr
          1687 -60 callgsubr
          endchar
        </CharString>
        <CharString name="minus">
          -12 callsubr
        </CharString>
        <CharString name="minute">
          -622 1190 636 hstem
          161 410 vstem
          161 1190 -7 callsubr
          endchar
        </CharString>
        <CharString name="mu">
          -75 callgsubr
        </CharString>
        <CharString name="multiply">
          66 1160 -20 hstem
          168 1047 vstem
          339 237 rmoveto
          351 368 351 -368 171 171 -356 369 359 383 -171 160 -351 -378 -354 378 -171 -160 359 -384 -359 -368 rlineto
          endchar
        </CharString>
        <CharString name="n">
          38 -58 callgsubr
          39 6 callsubr
          392 -41 callsubr
          hintmask 10111000
          174 hmoveto
          -92 callsubr
          hintmask 11011000
          -32 callgsubr
          endchar
        </CharString>
        <CharString name="nacute">
          38 7 callsubr
          515 -21 -25 callgsubr
          142 555 -305 312 hintmask 00101000
          777 1251 -99 callgsubr
          hintmask 00000000
          -454 -1388 rmoveto
          -92 callsubr
          hintmask 11010100
          -32 callgsubr
          endchar
        </CharString>
        <CharString name="napostrophe">
          38 -44 callgsubr
          1159 6 callsubr
          130 231 31 -41 callsubr
          hintmask 11000100
          554 -105 callsubr
          hintmask 00000000
          -564 86 rmoveto
          -92 callsubr
          hintmask 00111010
          -32 callgsubr
          endchar
        </CharString>
        <CharString name="nbspace">
          -645 endchar
        </CharString>
        <CharString name="ncaron">
          38 7 callsubr
          111 462 -25 callgsubr
          -124 792 -276 312 hintmask 00101000
          648 1250 -78 callgsubr
          hintmask 00000000
          -188 -1623 rmoveto
          -92 callsubr
          hintmask 11010100
          -32 callgsubr
          endchar
        </CharString>
        <CharString name="ncommaaccent">
          38 -44 callgsubr
          1159 6 callsubr
          130 231 31 -41 callsubr
          hintmask 11000100
          554 -105 callsubr
          hintmask 00000000
          -564 86 rmoveto
          -92 callsubr
          hintmask 00111010
          -32 callgsubr
          endchar
        </CharString>
        <CharString name="nine">
          113 234 239 579 220 hstem
          135 314 507 332 vstem
          320 -210 rmoveto
          83 -184 rlineto
          368 60 517 400 604 vvcurveto
          327 -200 275 -359 -397 -197 -247 -317 -254 156 -220 279 160 98 54 40 35 vhcurveto
          -60 178 rlineto
          -15 -33 -35 -18 -86 hhcurveto
          -115 -85 93 224 156 89 106 160 191 71 -198 -275 -4 hvcurveto
          -4 -285 -236 -405 -396 -99 rrcurveto
          endchar
        </CharString>
        <CharString name="notequal">
          12 callgsubr
          406 203 rmoveto
          192 hlineto
          74 208 rlineto
          500 216 -422 hlineto
          103 296 rlineto
          319 216 -241 hlineto
          66 180 rlineto
          -194 hlineto
          -65 -180 rlineto
          -487 -216 409 hlineto
          -104 -296 rlineto
          -305 -216 228 hlineto
          endchar
        </CharString>
        <CharString name="ntilde">
          38 -58 callgsubr
          39 -20 204 7 callgsubr
          174 312 -171 876 -313 -41 callsubr
          hintmask 10100101
          174 hmoveto
          -92 callsubr
          hintmask 11000101
          -32 callgsubr
          hintmask 00000000
          266 234 -52 callsubr
          hintmask 00001010
          -98 callsubr
          hintmask 00010010
          -60 callsubr
        </CharString>
        <CharString name="numbersign">
          331 21 -21 326 210 320 202 hstem
          196 1253 vstem
          352 hmoveto
          258 hlineto
          31 326 rlineto
          279 hlineto
          -29 -326 rlineto
          254 hlineto
          31 326 rlineto
          229 210 -209 hlineto
          30 320 rlineto
          223 202 -204 hlineto
          30 315 rlineto
          -259 hlineto
          -29 -315 rlineto
          -275 hlineto
          30 315 rlineto
          -261 hlineto
          -30 -315 rlineto
          -217 -202 198 hlineto
          -30 -320 rlineto
          -206 -210 186 hlineto
          279 210 rmoveto
          31 320 rlineto
          276 hlineto
          -29 -320 rlineto
          endchar
        </CharString>
        <CharString name="o">
          -45 callsubr
          hstem
          96 323 464 323 vstem
          -85 callsubr
          endchar
        </CharString>
        <CharString name="oacute">
          -45 callsubr
          498 -21 15 callsubr
          108 555 -199 323 hintmask 00101000
          676 1251 -99 callgsubr
          hintmask 11010100
          -431 -794 -106 callgsubr
          endchar
        </CharString>
        <CharString name="obreve">
          -45 callsubr
          15 callsubr
          464 323 vstemhm
          -85 callsubr
          13 1093 -95 callsubr
        </CharString>
        <CharString name="ocircumflex">
          -45 callsubr
          80 462 15 callsubr
          -154 792 -174 323 hintmask 00101000
          421 1236 -94 callgsubr
          hintmask 11010100
          -169 -731 -106 callgsubr
          endchar
        </CharString>
        <CharString name="odieresis">
          -45 callsubr
          153 353 15 callsubr
          -176 834 -194 323 hintmask 00101000
          894 1309 rmoveto
          -94 callsubr
          -485 hmoveto
          -94 callsubr
          hintmask 11010100
          -313 -715 -106 callgsubr
          endchar
        </CharString>
        <CharString name="oe">
          648 -16 220 -220 232 279 173 266 222 15 callsubr
          hintmask 00000000
          hintmask 10111000
          96 594 rmoveto
          -325 -5 142 -285 402 hhcurveto
          160 133 48 93 95 hvcurveto
          -92 88 128 -49 166 hhcurveto
          177 171 53 61 75 hvcurveto
          hintmask 01111000
          -51 177 rlineto
          -33 -60 -152 -26 -81 hhcurveto
          -176 -116 85 194 -13 hvcurveto
          675 hlineto
          8 51 3 77 86 vvcurveto
          332 -217 117 -236 -2 vhcurveto
          -161 -1 -126 -53 -90 -89 rrcurveto
          88 -82 -122 55 -175 hhcurveto
          hintmask 10111000
          -324 -231 -196 -366 -5 hvcurveto
          1089 74 rmoveto
          202 22 80 64 115 hhcurveto
          140 43 -99 -167 -10 hvcurveto
          -933 -464 rmoveto
          -163 2 -60 181 199 vvcurveto
          221 65 128 165 -1 vhcurveto
          164 -2 60 -177 -194 vvcurveto
          -229 -66 -130 -165 2 vhcurveto
          endchar
        </CharString>
        <CharString name="ogonek">
          -662 -515 177 hstemhm
          62 235 -235 514 hintmask 00000000
          hintmask 10100000
          294 -7 rmoveto
          hintmask 11000000
          -113 -59 -128 -110 9 -151 6 -126 125 -63 128 1 rrcurveto
          110 90 32 38 55 hvcurveto
          -9 135 rlineto
          -10 -37 -59 -18 -53 hhcurveto
          -74 -44 25 59 -3 hvcurveto
          -7 109 125 101 117 63 -119 -10 rcurveline
          endchar
        </CharString>
        <CharString name="ograve">
          -45 callsubr
          498 -21 15 callsubr
          -194 556 102 323 hintmask 11010100
          -85 callsubr
          hintmask 00101000
          -16 1047 -91 callsubr
        </CharString>
        <CharString name="ohungarumlaut">
          -45 callsubr
          559 -21 24 -21 15 callsubr
          -122 987 -401 323 hintmask 00000000
          hintmask 00010100
          424 1334 -40 callgsubr
          hintmask 00100100
          -28 callgsubr
          hintmask 11001010
          -720 -833 -106 callgsubr
          endchar
        </CharString>
        <CharString name="omacron">
          -45 callsubr
          263 206 15 callsubr
          -54 591 -73 323 hintmask 00101000
          365 1419 -60 callgsubr
          hintmask 11010100
          -269 -1031 -106 callgsubr
          endchar
        </CharString>
        <CharString name="one">
          -310 21 -21 hstem
          391 322 vstem
          391 hmoveto
          321 hlineto
          2 1253 -154 25 -77 -63 -222 -113 -134 -35 rlinecurve
          26 -185 79 14 80 14 79 19 rlinecurve
          endchar
        </CharString>
        <CharString name="onehalf">
          1245 -2 231 -208 -21 673 1031 -867 204 489 -20 hstemhm
          444 279 48 782 -75 890 -346 293 8 callsubr
          hintmask 1001000100000000
          1551 -2 33 callgsubr
          hintmask 1001000010000000
          -50 callsubr
          hintmask 0010010000000000
          -1064 521 -51 callgsubr
          hintmask 0100101000000000
          327 -1402 rmoveto
          -11 callgsubr
        </CharString>
        <CharString name="onequarter">
          1245 21 -21 195 192 286 1031 -174 -20 hstemhm
          443 279 49 782 387 256 hintmask 01000010
          1395 195 -67 callsubr
          hintmask 10010100
          -572 -289 rmoveto
          -7 callgsubr
          hintmask 00101000
          -867 -857 -51 callgsubr
          endchar
        </CharString>
        <CharString name="onesuperior">
          -248 673 1031 hstem
          411 279 vstem
          411 673 -51 callgsubr
          endchar
        </CharString>
        <CharString name="ordfeminine">
          -247 667 191 262 146 161 189 hstem
          120 255 298 260 vstem
          413 667 rmoveto
          117 116 57 41 39 hvcurveto
          -13 vlineto
          -81 43 6 75 vhcurveto
          130 630 hlineto
          231 -134 78 -253 -159 -202 -76 -35 -38 vhcurveto
          56 -155 rlineto
          31 45 158 46 92 hhcurveto
          123 52 -18 -108 hvcurveto
          -35 vlineto
          -114 -128 -11 -44 -119 hvcurveto
          -110 -44 -82 -87 -140 vvcurveto
          -164 110 -109 183 vhcurveto
          84 191 rmoveto
          -64 -58 32 68 54 16 40 59 34 hvcurveto
          32 60 78 2 85 hhcurveto
          -213 vlineto
          -15 -19 -74 -34 -83 hhcurveto
          endchar
        </CharString>
        <CharString name="ordmasculine">
          -249 669 191 567 191 hstem
          83 267 365 267 vstem
          529 669 rmoveto
          231 217 131 336 5 hvcurveto
          284 4 -147 198 -287 hhcurveto
          -225 -239 -126 -336 -5 hvcurveto
          -294 -3 155 -193 294 hhcurveto
          12 191 rmoveto
          -129 -2 -62 118 180 vvcurveto
          196 71 73 120 2 vhcurveto
          120 2 54 -113 -182 vvcurveto
          -194 -54 -78 -120 -2 vhcurveto
          endchar
        </CharString>
        <CharString name="oslash">
          -12 -16 220 -188 -21 939 222 -10 -20 15 callsubr
          -323 1110 -323 323 hintmask 00000000
          hintmask 01010100
          312 -188 rmoveto
          125 -32 76 215 rlineto
          hintmask 10010100
          -7 39 43 -4 46 hhcurveto
          hintmask 10010010
          323 237 196 366 5 hvcurveto
          4 247 -84 224 -218 93 80 225 rcurveline
          -125 32 -79 -221 rlineto
          hintmask 10101010
          6 -38 -40 4 -44 hhcurveto
          -324 -236 -196 -366 -6 hvcurveto
          -3 -246 83 -222 214 -95 rrcurveto
          95 268 rmoveto
          -46 72 -20 105 110 vvcurveto
          221 71 128 165 -1 vhcurveto
          18 18 -3 -4 16 hvcurveto
          -117 -714 rmoveto
          224 633 rlineto
          48 -71 21 -104 -110 vvcurveto
          -229 -70 -130 -165 2 vhcurveto
          -21 -19 4 5 -18 hvcurveto
          endchar
        </CharString>
        <CharString name="otilde">
          -45 callsubr
          187 7 callgsubr
          96 323 -205 876 -207 323 hintmask 11001010
          -85 callsubr
          hintmask 00000000
          -309 1170 -52 callsubr
          hintmask 00010100
          -98 callsubr
          hintmask 00100100
          -60 callsubr
        </CharString>
        <CharString name="p">
          19 callsubr
          hstemhm
          1 callgsubr
          438 327 hintmask 00000000
          hintmask 11011100
          2 callgsubr
          hintmask 11101100
          -14 callgsubr
          -183 -97 -80 -52 -52 vhcurveto
          hintmask 11011100
          18 callsubr
          hintmask 11101100
          603 -48 callgsubr
          -246 -2 -112 -138 -148 hhcurveto
          hintmask 11011100
          -69 -66 9 37 -41 hvcurveto
          endchar
        </CharString>
        <CharString name="paragraph">
          96 21 -21 -48 callsubr
          189 hstem
          496 252 202 252 vstem
          496 hmoveto
          252 -48 callsubr
          202 -1522 252 1691 hlineto
          3 -129 -309 17 -106 hhcurveto
          -399 -197 -164 -299 -333 160 -138 274 hvcurveto
          endchar
        </CharString>
        <CharString name="parenleft">
          -479 1672 -21 hstem
          130 277 vstem
          599 -360 rmoveto
          181 116 rlineto
          -100 72 -273 294 585 vvcurveto
          559 297 329 76 56 vhcurveto
          -181 116 rlineto
          -116 -68 -353 -370 -612 vvcurveto
          -705 378 -317 91 -55 vhcurveto
          endchar
        </CharString>
        <CharString name="parenright">
          -479 -248 21 hstem
          418 277 vstem
          226 1784 rmoveto
          -181 -116 rlineto
          100 -72 273 -294 -585 vvcurveto
          -559 -297 -329 -76 -56 vhcurveto
          181 -116 rlineto
          116 68 353 370 612 vvcurveto
          705 -378 317 -91 55 vhcurveto
          endchar
        </CharString>
        <CharString name="partialdiff">
          101 -30 222 699 205 399 231 hstem
          126 322 542 313 vstem
          126 495 rmoveto
          -305 7 250 -220 286 hhcurveto
          444 190 323 527 458 -216 448 -540 -140 -158 -43 -83 -110 hvcurveto
          103 -175 rlineto
          42 64 107 28 88 hhcurveto
          288 153 -183 -275 39 hvcurveto
          34 -68 -80 25 -103 hhcurveto
          -316 -298 -171 -430 10 hvcurveto
          322 25 rmoveto
          262 -7 117 109 176 hhcurveto
          104 74 -23 -50 78 hvcurveto
          -89 vlineto
          -182 -30 -355 -242 -206 -58 139 189 -6 vhcurveto
          endchar
        </CharString>
        <CharString name="percent">
          874 -31 callgsubr
          8 callsubr
          hintmask 0101101111000000
          675 hmoveto
          246 hlineto
          hintmask 0110011111000000
          -11 callsubr
          hintmask 0101101111000000
          -2 callsubr
          hintmask 0110011111000000
          -1 callgsubr
          hintmask 0101101111000000
          29 callsubr
          hintmask 0110011111000000
          -153 -59 -93 -106 vhcurveto
          hintmask 1001101111000000
          749 -368 -79 callsubr
          endchar
        </CharString>
        <CharString name="period">
          -673 -1 -21 hstem
          24 callsubr
          vstem
          126 171 rmoveto
          -27 callsubr
        </CharString>
        <CharString name="periodcentered">
          -673 607 -21 hstem
          24 callsubr
          vstem
          126 779 rmoveto
          -27 callsubr
        </CharString>
        <CharString name="perthousand">
          1797 -31 callgsubr
          99 249 325 250 hintmask 1001000000110000
          2184 456 -79 callsubr
          8 callsubr
          -1758 -466 rmoveto
          246 hlineto
          hintmask 0101101111000000
          -11 callsubr
          hintmask 0110011111000000
          -2 callsubr
          hintmask 0101101111000000
          -1 callgsubr
          hintmask 0110011111000000
          29 callsubr
          hintmask 0101101111000000
          -153 -59 -93 -106 vhcurveto
          hintmask 0110011111000000
          749 -368 -79 callsubr
          endchar
        </CharString>
        <CharString name="pi">
          286 -24 226 -205 -21 911 253 hstemhm
          67 1472 hintmask 00000000
          hintmask 01110000
          158 114 rmoveto
          176 -138 79 8 62 32 41 36 rlinecurve
          90 83 50 65 12 228 24 459 rcurveline
          273 hlineto
          -54 -608 rlineto
          -170 -14 59 -133 176 hhcurveto
          214 143 125 118 43 hvcurveto
          -115 122 rlineto
          hintmask 10110000
          -49 -37 -61 -90 -79 hhcurveto
          -38 -25 41 86 4 hvcurveto
          25 558 rlineto
          16 hlineto
          209 97 92 236 11 hvcurveto
          -194 hlineto
          -54 -18 -27 -21 -82 hhcurveto
          -809 hlineto
          -161 -75 -44 -72 -54 hvcurveto
          -32 -45 -18 -67 -2 -31 120 -77 rcurveline
          34 38 47 49 102 hhcurveto
          65 hlineto
          -42 -400 -14 -140 -26 -104 -100 -77 rlinecurve
          hintmask 01110000
          -39 -29 -43 -19 -17 -4 rrcurveto
          endchar
        </CharString>
        <CharString name="plus">
          89 656 237 hstem
          578 246 vstem
          578 260 -53 callgsubr
        </CharString>
        <CharString name="plusminus">
          89 0 198 458 237 hstemhm
          243 909 -574 246 hintmask 10100000
          243 hmoveto
          909 198 -909 hlineto
          hintmask 01010000
          335 62 -53 callgsubr
        </CharString>
        <CharString name="product">
          394 1291 230 hstem
          321 318 420 318 vstem
          321 -171 rmoveto
          318 1462 420 -1462 318 1462 hlineto
          227 1 rlineto
          230 -1500 -230 vlineto
          217 -1 rlineto
          endchar
        </CharString>
        <CharString name="q">
          26 -485 -21 490 -23 callgsubr
          -16 -20 hstemhm
          95 327 438 -41 callsubr
          hintmask 10110110
          95 533 rmoveto
          -370 212 -179 242 166 96 65 52 55 vhcurveto
          -6 -240 rlineto
          -367 312 vlineto
          hintmask 10101110
          1646 vlineto
          hintmask 10110110
          -225 -34 rlineto
          23 -57 -109 27 -106 hhcurveto
          -347 -233 -244 -379 hvcurveto
          hintmask 11010110
          550 -306 rmoveto
          -135 -90 78 254 2 hvcurveto
          253 2 112 122 148 hhcurveto
          69 66 -4 -29 41 hvcurveto
          -613 vlineto
          -33 -47 -81 -28 -87 hhcurveto
          endchar
        </CharString>
        <CharString name="question">
          -257 -1 -21 1613 255 hstemhm
          126 860 -329 329 21 callgsubr
          337 506 rmoveto
          238 hlineto
          -24 88 -18 42 6 74 rrcurveto
          hintmask 11010000
          20 266 427 47 372 vvcurveto
          230 5 -148 221 -448 hhcurveto
          -127 -102 -25 -24 -40 hvcurveto
          -232 vlineto
          7 31 52 19 123 hhcurveto
          223 102 -70 -141 -263 -402 -32 4 -310 hvcurveto
          hintmask 11100000
          2 -131 39 -83 37 -55 rrcurveto
          -31 -352 rmoveto
          -101 1 77 -75 98 hhcurveto
          103 89 89 105 -1 hvcurveto
          99 -1 -67 76 -108 hhcurveto
          -101 -92 -89 -104 2 hvcurveto
          endchar
        </CharString>
        <CharString name="questiondown">
          -257 -322 255 1592 21 hstemhm
          61 329 -329 860 hintmask 00000000
          hintmask 11010000
          710 1018 rmoveto
          -238 hlineto
          24 -88 18 -42 -6 -74 rrcurveto
          hintmask 11100000
          -20 -266 -427 -47 -372 vvcurveto
          -230 -5 148 -221 448 hhcurveto
          127 102 25 24 40 hvcurveto
          232 vlineto
          -7 -31 -52 -19 -123 hhcurveto
          -223 -102 70 141 263 402 32 -4 310 hvcurveto
          hintmask 11010000
          -2 131 -39 83 -37 55 rrcurveto
          31 352 rmoveto
          101 -1 -77 75 -98 hhcurveto
          -103 -89 -89 -105 1 hvcurveto
          -99 1 67 -76 108 hhcurveto
          101 92 89 104 -2 hvcurveto
          endchar
        </CharString>
        <CharString name="quotedbl">
          -69 966 719 hstemhm
          216 305 203 305 hintmask 11000000
          254 966 -1 callsubr
          hintmask 10100000
          546 -719 -1 callsubr
          endchar
        </CharString>
        <CharString name="quotedblbase">
          -206 -521 17 callgsubr
          -521 -87 callgsubr
          hintmask 10100000
          678 -83 -87 callgsubr
          endchar
        </CharString>
        <CharString name="quotedblleft">
          -206 940 796 hstemhm
          94 264 284 264 hintmask 11000000
          279 940 rmoveto
          -66 callgsubr
          hintmask 10100000
          548 hmoveto
          -66 callgsubr
          endchar
        </CharString>
        <CharString name="quotedblright">
          -206 940 17 callgsubr
          940 -87 callgsubr
          hintmask 10100000
          678 -83 -87 callgsubr
          endchar
        </CharString>
        <CharString name="quoteleft">
          30 callgsubr
          94 264 vstem
          279 940 rmoveto
          -66 callgsubr
          endchar
        </CharString>
        <CharString name="quotereversed">
          30 callgsubr
          94 264 vstem
          298 940 rmoveto
          130 83 rlineto
          28 vlineto
          -44 50 -26 126 92 vvcurveto
          112 50 89 40 21 vhcurveto
          71 vlineto
          -169 124 rlineto
          -98 -35 -87 -126 -185 vvcurveto
          -241 139 -159 65 -50 vhcurveto
          endchar
        </CharString>
        <CharString name="quoteright">
          30 callgsubr
          183 265 vstem
          244 940 -87 callgsubr
          endchar
        </CharString>
        <CharString name="quotesinglbase">
          -754 -533 796 hstem
          183 265 vstem
          244 -533 -87 callgsubr
          endchar
        </CharString>
        <CharString name="quotesingle">
          -577 966 719 hstem
          216 305 vstem
          254 966 -1 callsubr
          endchar
        </CharString>
        <CharString name="r">
          -388 -58 callgsubr
          25 -20 34 -20 hstemhm
          158 -41 callsubr
          hintmask 10011000
          158 hmoveto
          -45 callgsubr
          hintmask 10101000
          301 vlineto
          hintmask 10011000
          -35 callgsubr
          hintmask 11001000
          -3 callgsubr
        </CharString>
        <CharString name="racute">
          34 callgsubr
          516 -21 hstemhm
          158 312 -62 555 hintmask 00010100
          557 1252 -99 callgsubr
          hintmask 00000000
          -250 -1389 rmoveto
          -45 callgsubr
          hintmask 10101000
          301 vlineto
          hintmask 11001000
          -35 callgsubr
          hintmask 10101000
          -3 callgsubr
        </CharString>
        <CharString name="radical">
          328 -354 2224 hstem
          109 1578 vstem
          216 353 rmoveto
          158 81 335 -788 rlineto
          261 hlineto
          717 2224 rlineto
          -308 hlineto
          -542 -1851 -249 697 rlineto
          -204 hlineto
          -275 -142 rlineto
          endchar
        </CharString>
        <CharString name="rcaron">
          34 callgsubr
          112 462 hstemhm
          142 792 -776 312 hintmask 00011000
          428 -18 callsubr
          hintmask 00000000
          16 -1624 rmoveto
          -45 callgsubr
          hintmask 10100100
          301 vlineto
          hintmask 11000100
          -35 callgsubr
          hintmask 10100100
          -3 callgsubr
        </CharString>
        <CharString name="rcommaaccent">
          -388 -44 callgsubr
          1145 -20 34 -20 hstemhm
          158 312 -212 231 hintmask 00000000
          hintmask 11000010
          196 -105 callsubr
          hintmask 00000000
          -222 86 rmoveto
          -45 callgsubr
          hintmask 00101100
          301 vlineto
          hintmask 00110100
          -35 callgsubr
          hintmask 00101100
          -3 callgsubr
        </CharString>
        <CharString name="registered">
          779 81 130 620 149 309 160 263 128 hstem
          172 142 395 212 274 219 364 143 vstem
          172 962 rmoveto
          -487 388 -394 486 486 389 394 487 486 -389 392 -486 -486 -388 -392 -486 vhcurveto
          142 hmoveto
          413 317 337 415 415 317 -337 -413 -414 -317 -337 -415 -415 -317 337 414 vhcurveto
          395 -481 rmoveto
          212 350 hlineto
          23 53 0 1 13 hvcurveto
          103 -38 31 -145 41 -81 19 -36 11 -28 21 -22 rrcurveto
          246 hlineto
          -36 45 -12 24 -18 30 -55 96 -39 130 -98 50 rrcurveto
          146 45 44 128 144 vvcurveto
          159 -115 116 -240 -132 -54 -6 1 -75 vhcurveto
          -89 hlineto
          212 -457 rmoveto
          291 vlineto
          12 36 26 -1 37 hhcurveto
          131 2 44 -53 -93 vvcurveto
          -108 -53 -57 -103 -37 -52 1 6 -29 vhcurveto
          endchar
        </CharString>
        <CharString name="ring">
          -547 1314 152 276 146 hstem
          42 8 callgsubr
          vstem
          380 1314 -77 callgsubr
          endchar
        </CharString>
        <CharString name="ring.cap">
          -547 1416 152 256 146 hstem
          42 8 callgsubr
          vstem
          380 1416 -58 callsubr
        </CharString>
        <CharString name="s">
          -23 callsubr
          22 callgsubr
          -841 298 236 307 21 callgsubr
          115 72 -34 callsubr
          hintmask 11011000
          -104 callsubr
          endchar
        </CharString>
        <CharString name="sacute">
          -23 callsubr
          498 -21 22 callgsubr
          -555 555 hintmask 00101000
          554 1251 -99 callgsubr
          hintmask 00000000
          -290 -1316 -34 callsubr
          hintmask 11010000
          -104 callsubr
          endchar
        </CharString>
        <CharString name="scaron">
          -23 callsubr
          94 462 22 callgsubr
          -821 792 hintmask 00101000
          425 1250 -78 callgsubr
          hintmask 00000000
          -24 -1551 -34 callsubr
          hintmask 11010000
          -104 callsubr
          endchar
        </CharString>
        <CharString name="scedilla">
          -266 25 callgsubr
          293 -21 27 -21 935 228 hstemhm
          119 298 34 217 -15 307 hintmask 00000000
          hintmask 11011100
          115 72 rmoveto
          53 -35 131 -39 140 -11 10 -29 6 -37 -4 -56 -52 callgsubr
          -59 callgsubr
          hintmask 10111100
          3 77 -12 83 -27 54 rrcurveto
          hintmask 10111010
          204 29 124 113 199 vvcurveto
          167 -88 97 -232 79 vhcurveto
          -167 57 -57 33 1 71 rrcurveto
          64 1 57 26 135 hhcurveto
          96 116 -37 -40 44 hvcurveto
          34 240 rlineto
          24 -41 -118 41 -162 hhcurveto
          -264 -195 -112 -216 -1 hvcurveto
          -1 -165 79 -117 209 -69 rrcurveto
          165 -54 82 -48 -66 vvcurveto
          -70 -57 -26 -122 1 vhcurveto
          -146 -148 63 27 -33 hvcurveto
          endchar
        </CharString>
        <CharString name="scircumflex">
          -23 callsubr
          80 462 22 callgsubr
          -817 792 hintmask 00101000
          299 1236 -94 callgsubr
          hintmask 00000000
          -28 -1253 -34 callsubr
          hintmask 11010000
          -104 callsubr
          endchar
        </CharString>
        <CharString name="second">
          -151 1190 636 hstemhm
          161 410 61 410 hintmask 11000000
          161 1190 -7 callsubr
          hintmask 10100000
          362 -636 -7 callsubr
          endchar
        </CharString>
        <CharString name="section">
          88 -193 223 1420 223 hstemhm
          203 268 -217 299 320 299 -223 262 hintmask 00000000
          hintmask 11100100
          275 -100 rmoveto
          -43 62 157 -50 187 hhcurveto
          hintmask 11101000
          220 271 98 255 104 -35 77 -54 58 hvcurveto
          hintmask 11010100
          78 79 50 94 106 426 -658 6 212 vvcurveto
          93 82 34 110 1 vhcurveto
          169 1 94 -45 43 -31 42 225 rcurveline
          34 -58 -121 39 -187 hhcurveto
          -208 -265 -94 -257 -115 46 -81 68 -62 hvcurveto
          hintmask 11101000
          -99 -81 -66 -103 -113 -428 670 22 -196 vvcurveto
          -100 -90 -34 -120 -1 vhcurveto
          -172 -1 -123 57 -51 39 rrcurveto
          154 693 rmoveto
          46 22 52 27 46 vhcurveto
          hintmask 11100100
          196 -101 233 -55 -179 vvcurveto
          -33 -11 -41 -17 -41 vhcurveto
          hintmask 11101000
          -201 98 -249 33 175 vvcurveto
          endchar
        </CharString>
        <CharString name="semicolon">
          -673 -485 -21 1264 -21 hstemhm
          24 callsubr
          -378 406 -289 289 hintmask 00000000
          hintmask 10010000
          137 73 rmoveto
          hintmask 10001000
          -38 callgsubr
          hintmask 01100000
          -11 770 rmoveto
          -27 callsubr
        </CharString>
        <CharString name="seven">
          -28 996 274 -116 -20 hstemhm
          106 1078 hintmask 00000000
          hintmask 01100000
          264 -302 rmoveto
          318 -92 602 1548 rlineto
          hintmask 10100000
          -77 117 rlineto
          -1001 -274 hlineto
          730 -1 rlineto
          hintmask 01100000
          -135 -330 -224 -525 -213 -443 rrcurveto
          endchar
        </CharString>
        <CharString name="six">
          100 -16 218 576 239 hstem
          127 334 508 316 vstem
          127 586 rmoveto
          -327 209 -275 354 408 187 268 302 251 -156 212 -277 -151 -104 -55 -39 -37 vhcurveto
          63 -181 rlineto
          15 29 49 21 78 hhcurveto
          102 88 -70 -225 -168 -80 -113 -170 -196 -66 208 265 4 hvcurveto
          5 293 231 367 380 98 -76 187 rcurveline
          -368 -58 -506 -387 -589 vvcurveto
          endchar
        </CharString>
        <CharString name="slash">
          -450 -363 1962 hstem
          24 816 vstem
          24 -363 rmoveto
          255 hlineto
          561 1962 rlineto
          -255 hlineto
          endchar
        </CharString>
        <CharString name="space">
          -645 endchar
        </CharString>
        <CharString name="sterling">
          262 -18 210 -179 -21 725 181 396 244 hstemhm
          416 320 428 289 hintmask 00000000
          hintmask 10111100
          114 116 rmoveto
          hintmask 01111100
          -90 80 -34 62 80 86 52 46 41 vhcurveto
          hintmask 10111100
          3 122 117 -111 292 hhcurveto
          308 151 142 224 169 -92 61 -49 28 hvcurveto
          -211 -110 rlineto
          32 -22 31 -56 -70 vvcurveto
          -93 -66 -63 -160 -138 -69 32 21 -105 vhcurveto
          64 57 46 79 173 vvcurveto
          163 310 181 -310 65 vlineto
          313 122 18 105 93 75 -48 -34 44 vhcurveto
          126 229 rlineto
          50 -77 -125 47 -165 hhcurveto
          -348 -170 -216 -297 hvcurveto
          -127 -176 -181 176 -182 vlineto
          -63 -7 -136 -28 -40 vhcurveto
          -148 -4 -119 -67 -109 vvcurveto
          endchar
        </CharString>
        <CharString name="summation">
          149 -170 218 1245 229 -80 80 hstemhm
          152 1144 hintmask 00000000
          hintmask 11010000
          152 -106 rmoveto
          26 -64 rlineto
          1118 218 -712 hlineto
          426 638 -433 607 rlineto
          678 229 -1073 hlineto
          hintmask 10110000
          -30 -80 551 -762 rlineto
          endchar
        </CharString>
        <CharString name="t">
          -401 4 callsubr
          hstemhm
          211 -41 callsubr
          hintmask 01110000
          211 339 -49 callsubr
          hintmask 10110000
          -38 175 rlineto
          -6 callsubr
          -79 callgsubr
          vlineto
          endchar
        </CharString>
        <CharString name="tbar">
          -401 -16 235 -214 -21 539 214 187 216 hstemhm
          211 -41 callsubr
          hintmask 01111000
          211 339 -49 callsubr
          hintmask 10111000
          -38 175 rlineto
          -6 callsubr
          -96 -34 16 231 hvcurveto
          57 316 214 -316 187 309 216 -309 260 -190 vlineto
          -27 -74 -29 -79 -19 -46 -27 -65 -57 -14 -100 -29 rrcurveto
          -169 137 -187 -130 -214 130 vlineto
          endchar
        </CharString>
        <CharString name="tcaron">
          -256 4 callsubr
          82 698 hstemhm
          211 312 291 239 hintmask 00000000
          hintmask 01101000
          211 339 -49 callsubr
          hintmask 10101000
          -38 175 rlineto
          -6 callsubr
          -79 callgsubr
          vlineto
          hintmask 00010100
          722 298 -83 callgsubr
        </CharString>
        <CharString name="thorn">
          26 -486 -21 484 216 -184 -21 935 233 hstemhm
          1 callgsubr
          438 327 hintmask 00000000
          hintmask 10111000
          481 -12 rmoveto
          hintmask 11011100
          -7 55 58 -4 55 hhcurveto
          354 242 256 379 -14 callgsubr
          -169 -96 -68 -52 -54 hvcurveto
          8 188 rlineto
          437 -312 -2168 318 338 vlineto
          -6 401 rmoveto
          620 -48 callgsubr
          -252 -2 -112 -142 -148 hhcurveto
          -89 -61 11 28 -26 hvcurveto
          endchar
        </CharString>
        <CharString name="three">
          -144 -335 227 1143 246 hstemhm
          77 1007 -401 321 -252 332 21 callgsubr
          122 -85 rmoveto
          1 -204 rlineto
          -12 38 88 -34 155 hhcurveto
          hintmask 11001000
          408 272 219 286 154 -99 185 -250 22 hvcurveto
          hintmask 11010000
          149 70 120 128 188 vvcurveto
          218 -161 146 -324 -192 -192 -90 -62 -58 vhcurveto
          93 -195 rlineto
          44 64 91 57 151 hhcurveto
          118 91 -45 -115 -2 hvcurveto
          -2 -92 -52 -73 -100 -56 -60 -31 -95 -30 -89 -19 42 -198 rcurveline
          139 36 rlineto
          hintmask 11001000
          211 8 75 -115 -138 vvcurveto
          -182 -191 -93 -251 vhcurveto
          hintmask 11100000
          -60 -63 9 14 -65 hvcurveto
          endchar
        </CharString>
        <CharString name="threequarters">
          1245 195 192 201 200 733 192 hstemhm
          114 32 callgsubr
          1032 256 hintmask 10000010
          1395 195 -67 callsubr
          hintmask 00000000
          -1188 346 rmoveto
          -13 61 84 -34 137 hhcurveto
          hintmask 01110000
          9 callsubr
          hintmask 01100100
          -55 callgsubr
          hintmask 01101000
          -5 callsubr
          hintmask 01100100
          622 -819 rmoveto
          -11 callgsubr
        </CharString>
        <CharString name="threesuperior">
          -80 588 200 733 192 hstemhm
          248 32 callgsubr
          21 callgsubr
          289 635 rmoveto
          -13 61 84 -34 137 hhcurveto
          hintmask 11001000
          9 callsubr
          hintmask 11010000
          -55 callgsubr
          hintmask 11001000
          -5 callsubr
          endchar
        </CharString>
        <CharString name="tilde">
          -377 1344 7 callgsubr
          32 876 hintmask 00000000
          hintmask 01100000
          157 1375 -52 callsubr
          hintmask 10100000
          -98 callsubr
          hintmask 01100000
          -60 callsubr
        </CharString>
        <CharString name="tilde.cap">
          -377 1603 -33 callgsubr
          32 876 hintmask 00000000
          hintmask 01110000
          157 1634 -52 callsubr
          hintmask 10010000
          -98 callsubr
          hintmask 01110000
          -103 -29 130 -162 -39 callsubr
        </CharString>
        <CharString name="trademark">
          914 1351 191 -166 167 hstemhm
          397 219 hintmask 00000000
          hintmask 10100000
          977 767 rmoveto
          216 hlineto
          17 487 rlineto
          hintmask 01100000
          3 122 51 -154 182 -458 rlineto
          148 hlineto
          168 458 44 153 6 -121 31 -487 rlineto
          216 hlineto
          hintmask 10100000
          -68 776 rlineto
          -337 hlineto
          -107 -341 -26 -136 -33 136 -114 341 rlineto
          -354 hlineto
          -623 -776 rmoveto
          219 585 hlineto
          256 -1 rlineto
          192 -724 vlineto
          1 -192 248 1 rlineto
          endchar
        </CharString>
        <CharString name="two">
          47 0 253 791 248 hstemhm
          143 1066 -398 327 21 callgsubr
          186 hmoveto
          1023 264 hlineto
          -557 -21 rlineto
          hintmask 11010000
          299 185 187 218 249 vvcurveto
          203 -127 194 -362 -240 -177 -114 -85 -81 vhcurveto
          117 -183 rlineto
          69 69 131 65 130 hhcurveto
          148 65 -89 -118 -264 -414 -276 -254 -142 hvcurveto
          endchar
        </CharString>
        <CharString name="twosuperior">
          -80 680 231 608 204 hstemhm
          156 890 -346 293 21 callgsubr
          229 680 33 callgsubr
          hintmask 11010000
          -50 callsubr
          endchar
        </CharString>
        <CharString name="u">
          -43 callsubr
          -25 callsubr
          366 -41 callsubr
          hintmask 01111000
          162 474 -96 callgsubr
          hintmask 10111000
          -87 callsubr
          endchar
        </CharString>
        <CharString name="uacute">
          12 5 -47 callgsubr
          534 -21 -25 callsubr
          67 555 -256 312 hintmask 00101000
          690 1251 -99 callgsubr
          hintmask 00000000
          -379 -914 -96 callgsubr
          hintmask 11010100
          -87 callsubr
          endchar
        </CharString>
        <CharString name="ubreve">
          -43 callsubr
          -25 callsubr
          366 -41 callsubr
          hintmask 01111000
          162 474 -96 callgsubr
          hintmask 10111000
          -10 callsubr
          513 157 -95 callsubr
        </CharString>
        <CharString name="ucircumflex">
          12 5 -47 callgsubr
          116 462 -25 callsubr
          -195 792 -231 312 hintmask 00101000
          435 1236 -94 callgsubr
          hintmask 00000000
          -117 -851 -96 callgsubr
          hintmask 11010100
          -87 callsubr
          endchar
        </CharString>
        <CharString name="udieresis">
          12 5 -47 callgsubr
          189 353 -25 callsubr
          -217 834 -251 312 hintmask 00101000
          908 1309 rmoveto
          -94 callsubr
          -485 hmoveto
          -94 callsubr
          hintmask 00000000
          -261 -835 -96 callgsubr
          hintmask 11010100
          -87 callsubr
          endchar
        </CharString>
        <CharString name="ugrave">
          -43 callsubr
          534 -21 -25 callsubr
          -235 556 45 -41 callsubr
          hintmask 01101010
          162 474 -96 callgsubr
          hintmask 10101010
          -87 callsubr
          hintmask 00010100
          484 111 -91 callsubr
        </CharString>
        <CharString name="uhungarumlaut">
          -43 callsubr
          598 -21 -25 callsubr
          -163 987 -458 -41 callsubr
          hintmask 01101010
          162 474 -96 callgsubr
          hintmask 10101010
          -10 callsubr
          276 194 -40 callgsubr
          hintmask 00010100
          -28 callgsubr
          endchar
        </CharString>
        <CharString name="umacron">
          -43 callsubr
          299 206 -25 callsubr
          -95 591 -130 -41 callsubr
          hintmask 01101010
          162 474 -96 callgsubr
          hintmask 10101010
          -87 callsubr
          hintmask 00010100
          217 279 -60 callgsubr
          endchar
        </CharString>
        <CharString name="underscore">
          388 -409 168 hstem
          -35 1772 vstem
          -35 -241 rmoveto
          -168 1772 168 vlineto
          endchar
        </CharString>
        <CharString name="uni0001">
          endchar
        </CharString>
        <CharString name="uni0002">
          endchar
        </CharString>
        <CharString name="uni0003">
          endchar
        </CharString>
        <CharString name="uni0005">
          endchar
        </CharString>
        <CharString name="uni0006">
          endchar
        </CharString>
        <CharString name="uni0007">
          endchar
        </CharString>
        <CharString name="uni0008">
          endchar
        </CharString>
        <CharString name="uni0015">
          endchar
        </CharString>
        <CharString name="uni0016">
          endchar
        </CharString>
        <CharString name="uni0017">
          endchar
        </CharString>
        <CharString name="uni0018">
          endchar
        </CharString>
        <CharString name="uni0019">
          endchar
        </CharString>
        <CharString name="uni0162">
          -64 25 callgsubr
          306 21 callsubr
          hstemhm
          466 320 -256 217 hintmask 00000000
          hintmask 11110000
          332 -13 callsubr
          80 -12 88 -30 53 rrcurveto
          hintmask 11110000
          78 1278 434 244 -1190 -244 436 -1278 48 hlineto
          12 -30 8 -41 -4 -64 -52 callgsubr
          endchar
        </CharString>
        <CharString name="uni0163">
          -401 25 callgsubr
          297 -21 933 216 hstemhm
          211 312 -88 217 hintmask 00000000
          hintmask 11110000
          237 -13 callsubr
          76 -12 82 -26 54 115 16 92 46 44 39 -38 175 rcurveline
          -6 callsubr
          hintmask 11110000
          -79 callgsubr
          -585 vlineto
          -212 60 -105 150 -29 vhcurveto
          hintmask 11101000
          11 -30 7 -38 -4 -60 rrcurveto
          -103 -4 -52 -47 -65 hhcurveto
          hintmask 11110000
          -31 -29 3 11 -17 hvcurveto
          endchar
        </CharString>
        <CharString name="uni0218">
          -107 -539 -21 65 -21 500 249 1067 238 hstemhm
          139 993 -588 -16 callsubr
          482 -105 callsubr
          hintmask 00000000
          -514 160 -33 callsubr
          hintmask 00111000
          -103 callgsubr
          endchar
        </CharString>
        <CharString name="uni0219">
          -266 -539 -21 65 -21 500 230 714 228 22 callgsubr
          -503 -16 callsubr
          395 -105 callsubr
          hintmask 00000000
          -464 158 -34 callsubr
          hintmask 00111000
          -104 callsubr
          endchar
        </CharString>
        <CharString name="uni021A">
          -64 -44 callgsubr
          1278 244 hstemhm
          466 320 -226 -16 callsubr
          498 -105 callsubr
          hintmask 00111000
          -216 86 rmoveto
          -46 callsubr
        </CharString>
        <CharString name="uni021B">
          -401 -539 -21 65 -21 521 -21 940 216 hstemhm
          211 312 -136 -16 callsubr
          325 -105 callsubr
          hintmask 00000000
          -298 425 -49 callsubr
          hintmask 00111000
          -38 175 rlineto
          -6 callsubr
          -79 callgsubr
          vlineto
          endchar
        </CharString>
        <CharString name="uni02c9">
          -613 1767 20 callsubr
          1767 -60 callgsubr
          endchar
        </CharString>
        <CharString name="uni0394">
          -51 callsubr
        </CharString>
        <CharString name="uni03A9">
          -77 callsubr
        </CharString>
        <CharString name="uni03BC">
          -75 callgsubr
        </CharString>
        <CharString name="uni1E02">
          3 callgsubr
          111 345 hstemhm
          188 315 28 361 62 303 -241 322 hintmask 0000010100000000
          703 16 callsubr
          -92 callgsubr
          8 callsubr
          -515 -1614 rmoveto
          161 hlineto
          hintmask 0110101000000000
          -18 callgsubr
          hintmask 1010101001000000
          -10 callgsubr
          hintmask 1011001010000000
          -154 1 rlineto
          315 -630 rmoveto
          hintmask 1010101000000000
          -8 callsubr
          hintmask 1011001010000000
          -41 -109 2 7 -41 hvcurveto
          hintmask 1010101000000000
          -29 callsubr
        </CharString>
        <CharString name="uni1E03">
          26 -23 216 730 233 151 27 callgsubr
          1 callgsubr
          164 379 -105 327 hintmask 11010100
          -64 callgsubr
          hintmask 00101000
          345 1075 -89 callsubr
        </CharString>
        <CharString name="uni1E0A">
          -20 callsubr
          111 345 22 callsubr
          82 361 166 336 hintmask 00001010
          763 1613 -92 callgsubr
          hintmask 00000000
          -575 -1613 -69 callsubr
        </CharString>
        <CharString name="uni1E0B">
          25 -16 -23 callgsubr
          151 27 callgsubr
          95 327 -194 379 252 -41 callsubr
          hintmask 01101010
          -74 callsubr
          hintmask 10101010
          -75 callsubr
          hintmask 00010100
          -236 1080 -89 callsubr
        </CharString>
        <CharString name="uni1E1E">
          28 callgsubr
          92 345 hstemhm
          188 322 -5 361 hintmask 00010100
          677 16 callsubr
          -92 callgsubr
          hintmask 11101000
          -489 -1614 rmoveto
          -4 callsubr
        </CharString>
        <CharString name="uni1E1F">
          -456 5 callsubr
          -42 27 callgsubr
          129 379 -271 312 hintmask 00011000
          310 1641 -102 callgsubr
          hintmask 11100100
          -73 -1641 -104 callgsubr
          endchar
        </CharString>
        <CharString name="uni1E40">
          572 6 -21 35 -21 1523 -20 111 345 hstemhm
          70 1746 -1032 361 hintmask 00010100
          956 1613 -92 callgsubr
          hintmask 00000000
          -886 -1614 19 callgsubr
          hintmask 01101000
          -2 callgsubr
          hintmask 10101000
          -31 callsubr
        </CharString>
        <CharString name="uni1E41">
          733 21 -21 896 264 -20 -20 40 -20 166 358 -25 callgsubr
          345 379 -334 312 385 312 8 callsubr
          hintmask 1001010110000000
          174 hmoveto
          312 hlineto
          hintmask 1100010110000000
          -67 callgsubr
          hintmask 1010010110000000
          -32 callgsubr
          hintmask 0000101000000000
          838 166 -89 callsubr
        </CharString>
        <CharString name="uni1E56">
          26 callgsubr
          112 345 -56 callsubr
          66 361 40 316 hintmask 00001010
          744 16 callsubr
          -92 callgsubr
          hintmask 00000000
          -556 -1614 rmoveto
          -3 callsubr
          hintmask 11010101
          376 -208 149 -348 vhcurveto
          hintmask 11100101
          18 callgsubr
          hintmask 11010101
          -19 callsubr
          hintmask 11100101
          -50 -67 2 6 -49 hvcurveto
          endchar
        </CharString>
        <CharString name="uni1E57">
          19 callsubr
          186 27 callgsubr
          1 callgsubr
          112 379 -53 327 hintmask 00000000
          hintmask 11010101
          2 callgsubr
          hintmask 11100101
          -14 callgsubr
          -183 -97 -80 -52 -52 vhcurveto
          hintmask 11010101
          18 callsubr
          hintmask 11100101
          603 -48 callgsubr
          -246 -2 -112 -138 -148 hhcurveto
          hintmask 11010101
          -69 -66 9 37 -41 hvcurveto
          hintmask 00001010
          293 1057 -89 callsubr
        </CharString>
        <CharString name="uni1E60">
          -13 callgsubr
          75 345 hstemhm
          139 993 -658 361 hintmask 00101000
          646 1613 -92 callgsubr
          hintmask 00000000
          -494 -1539 -33 callsubr
          hintmask 11010000
          -103 callgsubr
          endchar
        </CharString>
        <CharString name="uni1E61">
          -23 callsubr
          150 358 22 callgsubr
          -841 298 -73 379 -70 307 hintmask 00000000
          hintmask 11010000
          115 72 -34 callsubr
          hintmask 11001010
          -104 callsubr
          hintmask 00100100
          378 1002 -89 callsubr
        </CharString>
        <CharString name="uni1E6A">
          -64 21 21 callsubr
          91 345 hstemhm
          446 361 -341 320 hintmask 00110000
          618 1613 -92 callgsubr
          hintmask 11001000
          -152 -1613 rmoveto
          -46 callsubr
        </CharString>
        <CharString name="uni1E6B">
          -401 4 callsubr
          336 27 callgsubr
          211 312 -284 379 hintmask 00000000
          hintmask 01101000
          211 339 -49 callsubr
          hintmask 10101000
          -38 175 rlineto
          -6 callsubr
          -79 callgsubr
          vlineto
          hintmask 00010100
          209 552 -89 callsubr
        </CharString>
        <CharString name="uni2113">
          73 -27 236 1189 235 hstem
          262 279 391 282 vstem
          -13 174 rmoveto
          249 -123 51 30 50 31 49 31 rlinecurve
          -125 91 125 -45 90 hhcurveto
          377 104 241 160 92 hvcurveto
          -239 92 rlineto
          -134 -59 -102 -123 -132 hhcurveto
          -68 -44 33 47 -28 hvcurveto
          366 281 255 338 377 vvcurveto
          206 -100 142 -192 -464 -196 -645 -386 -90 9 -77 16 -68 vhcurveto
          -107 -78 -105 -67 -88 -48 rrcurveto
          554 404 rmoveto
          380 7 163 440 154 hhcurveto
          56 10 -66 -57 1 hvcurveto
          6 -243 -177 -248 -220 -206 rrcurveto
          endchar
        </CharString>
        <CharString name="uni2215">
          -460 -363 1962 hstem
          -96 1047 vstem
          -96 -363 rmoveto
          272 hlineto
          775 1962 rlineto
          -272 hlineto
          endchar
        </CharString>
        <CharString name="uni2219">
          -673 561 455 hstem
          102 437 vstem
          312 561 rmoveto
          127 102 110 129 -2 hvcurveto
          122 -1 -77 94 -130 hhcurveto
          -126 -104 -111 -127 1 hvcurveto
          -124 1 89 -93 120 hhcurveto
          endchar
        </CharString>
        <CharString name="uogonek">
          12 -32 callsubr
          500 239 -218 -21 25 -21 1152 -20 -25 callsubr
          366 -41 callsubr
          hintmask 01001111
          162 474 rmoveto
          hintmask 01010111
          -293 49 -197 326 111 138 49 60 84 vhcurveto
          hintmask 01001111
          -51 vlineto
          -33 12 -14 22 -7 vhcurveto
          -100 -60 -105 -103 9 -141 -66 callsubr
          hintmask 10010111
          -70 callgsubr
          -6 86 70 61 90 60 rrcurveto
          45 1156 -37 callsubr
          hintmask 01100111
          -87 callsubr
          endchar
        </CharString>
        <CharString name="uring">
          12 5 -47 callgsubr
          193 152 276 146 -25 callsubr
          -142 8 callgsubr
          -175 312 hintmask 00110110
          670 1313 -77 callgsubr
          hintmask 00000000
          -511 -991 -96 callgsubr
          hintmask 11001001
          -87 callsubr
          endchar
        </CharString>
        <CharString name="utilde">
          -43 callsubr
          223 7 callgsubr
          162 312 -246 876 -264 -41 callsubr
          hintmask 01100101
          162 474 -96 callgsubr
          hintmask 10100101
          -10 callsubr
          191 234 -52 callsubr
          hintmask 00001010
          -98 callsubr
          hintmask 00010010
          -60 callsubr
        </CharString>
        <CharString name="v">
          -123 5 -47 callgsubr
          hstem
          17 1157 vstem
          450 -16 rmoveto
          289 hlineto
          435 1156 rlineto
          -330 hlineto
          -174 -560 -70 -278 -72 278 -174 560 rlineto
          -337 hlineto
          endchar
        </CharString>
        <CharString name="w">
          443 5 -47 callgsubr
          hstem
          18 1721 vstem
          366 -16 -90 callsubr
        </CharString>
        <CharString name="wacute">
          443 5 -47 callgsubr
          539 -21 hstemhm
          18 1721 -988 555 hintmask 00101000
          900 1256 -99 callgsubr
          hintmask 11010000
          -385 -1409 -90 callsubr
        </CharString>
        <CharString name="wcircumflex">
          443 5 -47 callgsubr
          121 462 hstemhm
          18 1721 -1250 792 hintmask 00101000
          645 1241 -94 callgsubr
          hintmask 11010000
          -123 -1346 -90 callsubr
        </CharString>
        <CharString name="wdieresis">
          443 5 -47 callgsubr
          194 353 hstemhm
          18 1721 -1272 834 hintmask 00101000
          1118 1314 rmoveto
          -94 callsubr
          -485 hmoveto
          -94 callsubr
          hintmask 11010000
          -267 -1330 -90 callsubr
        </CharString>
        <CharString name="wgrave">
          443 5 -47 callgsubr
          539 -21 hstemhm
          18 1721 -1290 556 hintmask 11010000
          366 -16 -88 callgsubr
          hintmask 00101000
          838 116 -91 callsubr
        </CharString>
        <CharString name="x">
          -94 31 callsubr
          36 1163 vstem
          36 hmoveto
          357 hlineto
          184 319 26 54 33 -52 206 -321 rlineto
          357 hlineto
          -413 582 405 558 rlineto
          -352 hlineto
          -188 -296 -31 -61 -35 60 -196 297 rlineto
          -353 hlineto
          401 -563 rlineto
          endchar
        </CharString>
        <CharString name="y">
          -41 callgsubr
          23 callgsubr
          hintmask 00000000
          hintmask 11110000
          -100 callgsubr
          endchar
        </CharString>
        <CharString name="yacute">
          -41 callgsubr
          534 -21 23 callgsubr
          -683 555 hintmask 00000000
          hintmask 11101000
          -100 callgsubr
          hintmask 00010100
          508 1486 -20 callgsubr
        </CharString>
        <CharString name="ycircumflex">
          -41 callgsubr
          116 462 23 callgsubr
          -945 792 hintmask 00000000
          hintmask 11101000
          -100 callgsubr
          hintmask 00010100
          253 1471 -46 callgsubr
        </CharString>
        <CharString name="ydieresis">
          -41 callgsubr
          189 353 23 callgsubr
          -967 834 hintmask 00000000
          hintmask 11101000
          -100 callgsubr
          hintmask 00010100
          726 1544 rmoveto
          -94 callsubr
          -485 hmoveto
          -94 callsubr
          endchar
        </CharString>
        <CharString name="yen">
          262 21 -21 269 192 198 192 671 -20 hstem
          644 290 vstem
          286 269 rmoveto
          358 -269 290 269 347 192 -347 198 347 192 -266 hlineto
          422 671 rlineto
          -325 hlineto
          -255 -418 -68 -143 -68 141 -240 420 rlineto
          -323 hlineto
          418 -671 rlineto
          -290 -192 358 -198 -358 hlineto
          endchar
        </CharString>
        <CharString name="ygrave">
          -41 callgsubr
          534 -21 23 callgsubr
          -985 556 hintmask 00000000
          hintmask 11101000
          -100 callgsubr
          hintmask 00010100
          464 1486 -91 callsubr
        </CharString>
        <CharString name="z">
          -21 callgsubr
          hstemhm
          76 969 hintmask 00000000
          hintmask 11010000
          76 83 -36 callsubr
          hintmask 10110000
          484 745 rlineto
          hintmask 11010000
          -40 callsubr
          endchar
        </CharString>
        <CharString name="zacute">
          -21 callgsubr
          514 -21 hstemhm
          76 969 -607 555 hintmask 00010100
          587 1251 -99 callgsubr
          hintmask 00000000
          -362 -1305 -38 callsubr
        </CharString>
        <CharString name="zcaron">
          -21 callgsubr
          110 462 hstemhm
          76 969 -873 792 hintmask 00010100
          458 1250 -78 callgsubr
          hintmask 00000000
          -96 -1540 -38 callsubr
        </CharString>
        <CharString name="zdotaccent">
          -21 callgsubr
          166 27 callgsubr
          76 969 -668 379 hintmask 00000000
          hintmask 11001000
          76 83 -36 callsubr
          hintmask 10101000
          484 745 rlineto
          hintmask 11001000
          -40 callsubr
          hintmask 00010100
          -14 466 -89 callsubr
        </CharString>
        <CharString name="zero">
          95 -16 217 854 217 hstem
          124 315 531 315 vstem
          124 642 rmoveto
          -342 -4 150 -316 427 hhcurveto
          360 225 266 385 3 hvcurveto
          352 3 -127 285 -439 hhcurveto
          -347 -246 -242 -388 -5 hvcurveto
          581 -441 rmoveto
          -183 5 -83 217 228 vvcurveto
          250 93 157 177 -3 vhcurveto
          183 -2 78 -191 -236 vvcurveto
          -271 -87 -159 -178 5 vhcurveto
          endchar
        </CharString>
      <CharString index="0">
        102 355 rmoveto
        -215 148 -156 224 135 101 56 56 61 vhcurveto
        -8 vlineto
        -99 41 -5 76 vhcurveto
        182 761 hlineto
        331 -146 86 -317 -180 -205 -75 -44 -73 vhcurveto
        69 -200 rlineto
        44 97 156 37 61 hhcurveto
        193 33 -24 -122 hvcurveto
        -72 vlineto
        -144 -187 -10 -56 -126 hvcurveto
        -123 -55 -76 -92 -138 vvcurveto
        322 2 rmoveto
        85 52 29 47 18 vhcurveto
        22 47 113 19 75 hhcurveto
        -272 vlineto
        -27 -21 -86 -36 -70 hhcurveto
        -89 -68 51 111 hvcurveto
        return
      </CharString>
      <CharString index="1">
        rmoveto
        -325 -4 147 -285 402 hhcurveto
        323 237 196 366 5 hvcurveto
        325 5 -147 285 -402 hhcurveto
        -324 -236 -196 -366 -6 hvcurveto
        552 -390 rmoveto
        -163 2 -66 181 199 vvcurveto
        221 71 128 165 -1 vhcurveto
        164 -2 64 -177 -194 vvcurveto
        -229 -70 -130 -165 2 vhcurveto
        return
      </CharString>
      <CharString index="2">
        312 924 266 216 -266 116 hlineto
        138 65 69 95 78 47 -9 -15 31 vhcurveto
        222 vlineto
        8 -25 -91 14 -86 hhcurveto
        -197 -229 -100 -334 hvcurveto
        -109 vlineto
        -155 -34 rlineto
        -182 155 vlineto
        return
      </CharString>
      <CharString index="3">
        rmoveto
        -105 callgsubr
        return
      </CharString>
      <CharString index="4">
        311 212 150 274 247 -179 109 -239 126 hvcurveto
        -102 callsubr
        return
      </CharString>
      <CharString index="5">
        rmoveto
        106 92 85 103 98 -69 72 -111 -104 -95 -85 -102 -100 79 -71 102 hvcurveto
        return
      </CharString>
      <CharString index="6">
        rmoveto
        99 33 180 161 87 112 -217 131 rcurveline
        -18 -51 -249 -235 -28 -26 rrcurveto
        return
      </CharString>
      <CharString index="7">
        120 -235 rmoveto
        -253 vlineto
        -8 12 110 -11 30 hhcurveto
        31 84 10 11 37 hvcurveto
        152 45 147 135 84 276 355 1170 rcurveline
        -335 hlineto
        -139 -609 -77 -330 -83 330 -173 609 rlineto
        -338 hlineto
        387 -1140 rlineto
        134 hlineto
        -255 -66 -140 0 -99 hhcurveto
        -23 -68 13 7 -22 hvcurveto
        return
      </CharString>
      <CharString index="8">
        rmoveto
        80 35 267 210 59 137 -214 174 rcurveline
        -102 -166 -126 -147 -113 -106 rrcurveto
        return
      </CharString>
      <CharString index="9">
        rmoveto
        -461 291 -312 469 185 111 45 35 88 vhcurveto
        -1 262 rlineto
        -39 -53 -162 -57 -138 hhcurveto
        -289 -173 231 316 320 191 189 247 206 88 -58 -29 54 hvcurveto
        46 280 rlineto
        18 -96 -97 41 -221 hhcurveto
        -415 -331 -277 -504 hvcurveto
        return
      </CharString>
      <CharString index="10">
        rmoveto
        107 79 78 104 97 -56 67 -111 -104 -83 -80 -102 -99 67 -65 101 hvcurveto
        -523 hmoveto
        106 80 78 104 97 -57 67 -111 -104 -83 -80 -102 -99 67 -65 102 hvcurveto
        return
      </CharString>
      <CharString index="11">
        rmoveto
        -293 49 -197 326 111 138 49 60 84 vhcurveto
        -51 vlineto
        -49 27 -9 49 vhcurveto
        206 1156 -37 callsubr
        return
      </CharString>
      <CharString index="12">
        -107 callsubr
        endchar
      </CharString>
      <CharString index="13">
        rmoveto
        242 246 233 -246 161 90 -283 372 rlineto
        -223 hlineto
        -286 -373 rlineto
        return
      </CharString>
      <CharString index="14">
        rmoveto
        236 135 143 203 -8 hvcurveto
        -187 hlineto
        -48 -4 -19 -95 -153 hhcurveto
        -156 -13 95 48 -4 hvcurveto
        -191 hlineto
        -203 -8 124 -143 248 hhcurveto
        return
      </CharString>
      <CharString index="15">
        rmoveto
        106 83 78 103 98 -60 66 -111 -104 -86 -79 -102 -100 70 -64 102 hvcurveto
        return
      </CharString>
      <CharString index="16">
        rmoveto
        -215 198 -114 344 -4 vhcurveto
        hintmask 1110101000000000
        310 -4 291 148 270 vvcurveto
        163 -67 182 -372 vhcurveto
        -190 hlineto
        -95 -40 14 66 34 14 35 28 23 hvcurveto
        -4 32 33 -2 35 hhcurveto
        hintmask 1110100000100000
        320 187 129 246 48 -7 43 -13 39 hvcurveto
        189 226 -127 hlineto
        -86 -62 -36 -31 -36 hvcurveto
        hintmask 1111000001000000
        -88 59 -125 26 -148 -2 rrcurveto
        -299 -4 -195 -111 -266 vvcurveto
        -140 90 -115 144 -62 vhcurveto
        -141 -58 -40 -95 -1 -77 -1 -66 25 -72 69 -36 rrcurveto
        hintmask 1110100101000000
        -101 -44 -75 -83 -110 vvcurveto
        hintmask 1110101000000000
        526 783 rmoveto
        -127 -67 69 110 145 92 39 116 128 65 -65 -123 -143 -92 -32 -115 hvcurveto
        -216 -714 rmoveto
        63 19 32 23 21 vhcurveto
        -1 20 20 -1 22 hhcurveto
        163 hlineto
        hintmask 1110100101000000
        228 30 -58 -106 -120 -113 -48 -168 hvcurveto
        hintmask 1110100000100000
        -6 callgsubr
        endchar
      </CharString>
      <CharString index="17">
        1062 -27 callgsubr
        0 -20 187 358 -202 29 callgsubr
        457 -22 callgsubr
        hintmask 1010000010000000
        1890 hmoveto
        -69 callgsubr
        hintmask 0001000100000000
        -80 callgsubr
        hintmask 1100110000000000
        -1808 -54 callsubr
        hintmask 1100101000000000
        858 -924 -104 callgsubr
        endchar
      </CharString>
      <CharString index="18">
        -88 callsubr
        endchar
      </CharString>
      <CharString index="19">
        rmoveto
        289 hlineto
        179 607 45 218 44 -218 182 -607 rlineto
        278 hlineto
        356 1156 rlineto
        -302 hlineto
        -132 -554 -52 -272 -51 275 -165 551 rlineto
        -291 hlineto
        -165 -552 -58 -275 -51 276 -142 551 rlineto
        -37 callsubr
        return
      </CharString>
      <CharString index="20">
        rmoveto
        65 50 139 159 241 vvcurveto
        185 -88 126 -97 35 vhcurveto
        -169 -124 rlineto
        -71 vlineto
        39 -21 50 -89 -112 vvcurveto
        -92 -26 -126 -43 -50 vhcurveto
        -28 vlineto
        return
      </CharString>
      <CharString index="21">
        rmoveto
        146 125 -27 26 -250 235 -18 51 rlinecurve
        -217 -131 79 -109 197 -167 90 -30 rlinecurve
        return
      </CharString>
      <CharString index="22">
        rmoveto
        219 hlineto
        267 293 -154 91 -223 -181 -220 181 -157 -92 rlineto
        return
      </CharString>
      <CharString index="23">
        296 741 hlineto
        -35 363 121 -243 543 -861 rlineto
        319 -48 callsubr
        -296 -757 hlineto
        29 -366 -115 228 -567 895 rlineto
        -295 hlineto
        endchar
      </CharString>
      <CharString index="24">
        rmoveto
        52 60 68 197 173 vvcurveto
        135 -23 88 -48 45 vhcurveto
        -215 -70 -12 -64 rlineto
        32 -33 27 -93 -91 vvcurveto
        1 -110 -10 -125 -13 -61 8 -23 rcurveline
        endchar
      </CharString>
      <CharString index="25">
        rmoveto
        -96 callsubr
        return
      </CharString>
      <CharString index="26">
        461 hmoveto
        319 533 hlineto
        511 989 rlineto
        -341 hlineto
        -288 -590 -38 -114 -44 114 -280 590 rlineto
        -350 hlineto
        511 -987 rlineto
        return
      </CharString>
      <CharString index="27">
        155 -61 callsubr
        return
      </CharString>
      <CharString index="28">
        -96 -34 16 231 hvcurveto
        458 309 216 -309 260 -190 vlineto
        -27 -74 -29 -79 -19 -46 -27 -65 -57 -14 -100 -29 rrcurveto
        -169 137 return
      </CharString>
      <CharString index="29">
        rmoveto
        223 hlineto
        283 372 -161 90 -233 -246 -242 246 -156 -89 rlineto
        return
      </CharString>
      <CharString index="30">
        rmoveto
        177 166 86 13 callgsubr
        100 -208 hhcurveto
        -167 -176 -76 14 callgsubr
        -113 14 callsubr
        57 84 103 74 33 83 -1 hvcurveto
        91 -1 68 -52 -89 vvcurveto
        -104 -64 -31 -95 1 vhcurveto
        return
      </CharString>
      <CharString index="31">
        -654 -58 callgsubr
        187 27 callgsubr
        148 -22 callgsubr
        hintmask 11001000
        174 hmoveto
        -69 callgsubr
        hintmask 00110000
        -80 callgsubr
        endchar
      </CharString>
      <CharString index="32">
        90 -16 248 -229 -21 23 -47 callgsubr
        hstemhm
        181 312 376 -41 callsubr
        hintmask 00111100
        181 -371 rmoveto
        282 hlineto
        -30 423 rlineto
        -51 57 78 -17 100 hhcurveto
        145 80 79 57 39 hvcurveto
        hintmask 01011100
        -98 4 57 -40 90 hhcurveto
        142 98 84 21 14 hvcurveto
        hintmask 10011100
        -31 145 rlineto
        -22 -37 -32 -5 -13 hhcurveto
        -22 -21 14 62 hvcurveto
        859 -312 -840 vlineto
        -38 -44 -69 -30 -59 hhcurveto
        -149 -55 70 182 hvcurveto
        656 26 callsubr
      </CharString>
      <CharString index="33">
        1 rmoveto
        -229 -41 -76 -120 -34 -65 13 9 -18 vhcurveto
        -201 vlineto
        -10 25 111 -14 39 hhcurveto
        259 156 165 424 hvcurveto
        1058 -8 callgsubr
        return
      </CharString>
      <CharString index="34">
        rmoveto
        79 35 127 141 82 119 -230 112 rcurveline
        -18 -51 -174 -215 -28 -26 rrcurveto
        674 -115 rmoveto
        82 35 130 141 77 115 -226 113 rcurveline
        -18 -51 -178 -212 -28 -26 rrcurveto
        endchar
      </CharString>
      <CharString index="35">
        168 20 callgsubr
        99 24 57 1 rrcurveto
        129 4 43 -65 -186 vvcurveto
        -648 312 710 vlineto
        332 -126 125 -252 -8 vhcurveto
        -125 -4 -144 -68 -79 -66 17 203 rcurveline
        return
      </CharString>
      <CharString index="36">
        rmoveto
        267 hlineto
        34 1225 rlineto
        -347 hlineto
        -25 -1609 rmoveto
        -110 1 78 -83 107 hhcurveto
        114 90 98 115 -1 hvcurveto
        108 -1 -68 84 -117 hhcurveto
        -111 -94 -99 -113 2 hvcurveto
        return
      </CharString>
      <CharString index="37">
        157 vlineto
        -12 -42 -44 -8 -39 hhcurveto
        -67 -51 23 65 -3 hvcurveto
        return
      </CharString>
      <CharString index="38">
        312 1140 -37 callsubr
        return
      </CharString>
      <CharString index="39">
        -124 -16 232 279 173 266 222 return
      </CharString>
      <CharString index="40">
        809 vlineto
        69 61 101 25 56 1 rrcurveto
        130 3 34 -65 -186 vvcurveto
        -648 312 707 vlineto
        37 -2 35 -3 32 vhcurveto
        57 45 89 39 78 1 rrcurveto
        135 3 31 -64 -186 vvcurveto
        -649 312 717 vlineto
        334 -135 111 -236 -2 vhcurveto
        -164 -1 -152 -83 -70 -54 -57 101 -97 41 -140 -4 -140 -4 -154 -80 -77 -58 rrcurveto
        return
      </CharString>
      <CharString index="41">
        169 124 rlineto
        71 vlineto
        -40 21 -50 89 113 vvcurveto
        91 26 126 44 50 vhcurveto
        28 vlineto
        -130 83 rlineto
        -65 -49 -139 -159 -242 vvcurveto
        -184 87 -126 98 -36 vhcurveto
        return
      </CharString>
      <CharString index="42">
        rmoveto
        -229 169 -117 204 145 142 42 133 116 vhcurveto
        -113 91 140 -62 185 hhcurveto
        177 171 53 61 75 hvcurveto
        -51 177 rlineto
        -33 -60 -152 -26 -81 hhcurveto
        -176 -116 85 194 -13 hvcurveto
        675 hlineto
        8 51 3 77 86 vvcurveto
        -4 332 -213 117 -236 -2 -139 -1 -115 -40 -87 -68 rrcurveto
        return
      </CharString>
      <CharString index="43">
        168 64 rmoveto
        -25 34 239 -62 208 hhcurveto
        354 242 256 379 -14 callgsubr
        -169 -96 -68 -52 -54 hvcurveto
        8 188 rlineto
        437 -8 callgsubr
        312 -1429 rmoveto
        620 -48 callgsubr
        -252 -2 -112 -142 -148 hhcurveto
        -89 -61 11 28 -26 hvcurveto
        return
      </CharString>
      <CharString index="44">
        -91 -16 211 335 176 218 238 return
      </CharString>
      <CharString index="45">
        -97 callgsubr
        endchar
      </CharString>
      <CharString index="46">
        -9 -516 184 332 243 166 191 314 226 -177 193 return
      </CharString>
      <CharString index="47">
        rmoveto
        591 206 -591 hlineto
        return
      </CharString>
      <CharString index="48">
        -20 -165 rlineto
        -16 25 97 -12 58 hhcurveto
        134 115 72 171 6 hvcurveto
        return
      </CharString>
      <CharString index="49">
        21 -56 callgsubr
        return
      </CharString>
      <CharString index="50">
        318 469 hlineto
        157 177 101 -146 126 -200 104 -187 rlinecurve
        35 -62 10 -25 18 -26 rrcurveto
        354 hlineto
        -65 110 -124 214 -252 418 -93 136 rlinecurve
        514 644 rlineto
        -350 hlineto
        -535 -674 rlineto
        674 -318 vlineto
        endchar
      </CharString>
      <CharString index="51">
        -21 1140 -20 return
      </CharString>
      <CharString index="52">
        151 81 38 94 100 vvcurveto
        135 -107 108 -262 -109 -178 -48 -65 -77 vhcurveto
        66 -157 rlineto
        53 86 96 25 67 hhcurveto
        98 59 -33 -66 1 hvcurveto
        2 -74 -70 -60 -93 -28 -38 -9 -38 -7 -49 -7 -1 -185 rcurveline
        159 33 rlineto
        return
      </CharString>
      <CharString index="53">
        211 -16 254 1284 -20 return
      </CharString>
      <CharString index="54">
        rmoveto
        246 214 hlineto
        -7 188 151 -6 rlineto
        222 237 -222 hlineto
        -151 -7 7 187 rlineto
        217 -246 -217 vlineto
        6 -187 -162 7 rlineto
        -209 -237 209 hlineto
        162 6 -6 -188 rlineto
        endchar
      </CharString>
      <CharString index="55">
        rrcurveto
        -103 -4 -52 -47 -65 hhcurveto
        -31 -29 3 11 -17 hvcurveto
        return
      </CharString>
      <CharString index="56">
        rmoveto
        279 1006 hlineto
        -145 25 -47 -39 -202 -114 -121 -35 rlinecurve
        40 -161 73 13 56 16 67 18 rlinecurve
        return
      </CharString>
      <CharString index="57">
        -274 -310 rlineto
        endchar
      </CharString>
      <CharString index="58">
        158 9 -159 207 hhcurveto
        169 134 118 93 28 hvcurveto
        -116 138 rlineto
        -47 -43 -63 -58 -95 hhcurveto
        return
      </CharString>
      <CharString index="59">
        vlineto
        38 47 81 33 87 hhcurveto
        135 90 -75 -261 -2 hvcurveto
        return
      </CharString>
      <CharString index="60">
        -21 1156 -20 return
      </CharString>
      <CharString index="61">
        -94 callgsubr
        endchar
      </CharString>
      <CharString index="62">
        312 769 hlineto
        45 48 79 58 127 hhcurveto
        83 32 -16 -12 22 hvcurveto
        return
      </CharString>
      <CharString index="63">
        -539 -21 65 -21 537 -21 return
      </CharString>
      <CharString index="64">
        -38 81 rlineto
        -1067 -231 668 hlineto
        -58 -81 -686 -1126 rlineto
        return
      </CharString>
      <CharString index="65">
        86 -64 -110 29 -159 hhcurveto
        -231 -193 -94 -25 -44 hvcurveto
        69 -200 rlineto
        32 54 156 49 116 hhcurveto
        144 53 -40 -117 hvcurveto
        -61 vlineto
        -132 -187 -17 -52 -117 hvcurveto
        return
      </CharString>
      <CharString index="66">
        -126 -507 252 276 -56 callgsubr
        return
      </CharString>
      <CharString index="67">
        rmoveto
        93 54 181 206 64 103 -195 137 rcurveline
        -270 -407 rlineto
        641 -93 rmoveto
        return
      </CharString>
      <CharString index="68">
        -592 -63 callsubr
        return
      </CharString>
      <CharString index="69">
        51 -3 66 -113 -93 vvcurveto
        -107 -51 -107 -53 -32 vhcurveto
        -26 vlineto
        106 -98 rlineto
        158 55 129 202 227 vvcurveto
        116 -59 155 -125 47 vhcurveto
        -222 -136 rlineto
        return
      </CharString>
      <CharString index="70">
        345 hlineto
        177 376 rlineto
        449 -376 993 251 -675 412 468 241 -468 374 610 244 -1133 hlineto
        -139 -924 rmoveto
        return
      </CharString>
      <CharString index="71">
        rmoveto
        -16 callgsubr
        hintmask 11001000
        672 1106 rlineto
        hintmask 10101000
        -43 callgsubr
        endchar
      </CharString>
      <CharString index="72">
        11 -19 -31 3 -39 hhcurveto
        -144 -131 -90 -85 -48 hvcurveto
        return
      </CharString>
      <CharString index="73">
        -1042 -321 rmoveto
        97 58 25 48 20 vhcurveto
        22 49 83 19 97 hhcurveto
        3 -87 15 -78 26 -67 rrcurveto
        -50 -39 -93 -53 -88 hhcurveto
        -89 -70 48 104 hvcurveto
        endchar
      </CharString>
      <CharString index="74">
        225 -173 -21 102 222 hstemhm
        return
      </CharString>
      <CharString index="75">
        -6 122 rlineto
        -283 hlineto
        return
      </CharString>
      <CharString index="76">
        12 198 -189 -21 627 197 -111 196 418 196 7 -20 hstemhm
        103 249 325 249 335 249 325 250 return
      </CharString>
      <CharString index="77">
        rmoveto
        -656 422 -75 -216 431 -327 -431 -324 75 -214 return
      </CharString>
      <CharString index="78">
        180 -16 244 349 243 466 252 return
      </CharString>
      <CharString index="79">
        96 44 186 217 64 99 -196 136 rcurveline
        -272 -403 rlineto
        return
      </CharString>
      <CharString index="80">
        21 -21 924 216 return
      </CharString>
      <CharString index="81">
        -148 -32 157 -209 hhcurveto
        -163 -137 -140 -80 -25 hvcurveto
        return
      </CharString>
      <CharString index="82">
        hstemhm
        174 312 return
      </CharString>
      <CharString index="83">
        -266 -16 251 666 255 return
      </CharString>
      <CharString index="84">
        243 -222 -21 950 222 return
      </CharString>
      <CharString index="85">
        379 -353 312 return
      </CharString>
      <CharString index="86">
        -206 0 216 707 217 -95 95 return
      </CharString>
      <CharString index="87">
        -99 callgsubr
        endchar
      </CharString>
      <CharString index="88">
        -5 callgsubr
        318 651 593 -651 314 -48 callsubr
        -314 -632 -593 632 -318 hlineto
        return
      </CharString>
      <CharString index="89">
        -5 79 156 -9 131 hhcurveto
        480 143 200 275 197 -130 131 -179 20 hvcurveto
        return
      </CharString>
      <CharString index="90">
        121 21 0 callgsubr
        return
      </CharString>
      <CharString index="91">
        1102 242 -706 hlineto
        73 93 rlineto
        return
      </CharString>
      <CharString index="92">
        -15 -16 246 1056 252 return
      </CharString>
      <CharString index="93">
        370 -212 174 -242 return
      </CharString>
      <CharString index="94">
        -107 -16 249 1067 238 return
      </CharString>
      <CharString index="95">
        -85 callgsubr
        endchar
      </CharString>
      <CharString index="96">
        -7 callgsubr
        endchar
      </CharString>
      <CharString index="97">
        144 38 84 140 165 vvcurveto
        226 -171 159 -386 vhcurveto
        -153 -103 -15 -102 hhcurveto
        return
      </CharString>
      <CharString index="98">
        295 -193 308 8 callsubr
        return
      </CharString>
      <CharString index="99">
        -312 vlineto
        return
      </CharString>
      <CharString index="100">
        240 hlineto
        542 1530 rlineto
        -243 hlineto
        return
      </CharString>
      <CharString index="101">
        -183 -61 107 111 hvcurveto
        return
      </CharString>
      <CharString index="102">
        188 hmoveto
        return
      </CharString>
      <CharString index="103">
        -92 callgsubr
        endchar
      </CharString>
      <CharString index="104">
        -14 156 rlineto
        -277 hlineto
        endchar
      </CharString>
      <CharString index="105">
        241 -831 rlineto
        252 hlineto
        218 831 112 466 27 -466 rlineto
        return
      </CharString>
      <CharString index="106">
        -245 130 -201 265 2 vhcurveto
        14 197 rmoveto
        -102 -58 106 150 hvcurveto
        return
      </CharString>
      <CharString index="107">
        -21 579 219 503 237 -16 -20 return
      </CharString>
      <CharString index="108">
        168 312 return
      </CharString>
      <CharString index="109">
        476 16 rmoveto
        -17 46 64 -15 79 hhcurveto
        347 233 249 379 hvcurveto
        return
      </CharString>
      <CharString index="110">
        108 -14 220 -185 -21 671 213 420 233 -14 -20 return
      </CharString>
      <CharString index="111">
        -20 13 callsubr
        return
      </CharString>
      <CharString index="112">
        -63 callsubr
        187 -21 hstemhm
        return
      </CharString>
      <CharString index="113">
        -670 -507 203 1444 -20 return
      </CharString>
      <CharString index="114">
        225 -92 222 hstemhm
        return
      </CharString>
      <CharString index="115">
        184 316 183 return
      </CharString>
      <CharString index="116">
        hstemhm
        95 998 return
      </CharString>
      <CharString index="117">
        -69 callgsubr
        endchar
      </CharString>
      <CharString index="118">
        220 hstemhm
        237 312 return
      </CharString>
      <CharString index="119">
        109 411 216 296 216 hstem
        251 921 vstem
        return
      </CharString>
      <CharString index="120">
        204 2 hvcurveto
        11 callsubr
        return
      </CharString>
      <CharString index="121">
        -204 -4 hvcurveto
        -181 -3 126 return
      </CharString>
      <CharString index="122">
        vstem
        -5 callgsubr
        return
      </CharString>
      <CharString index="123">
        hstemhm
        98 329 return
      </CharString>
      <CharString index="124">
        796 hstemhm
        183 265 283 265 hintmask 11000000
        244 return
      </CharString>
      <CharString index="125">
        -145 -136 -16 -168 hhcurveto
        -96 hlineto
        318 -812 rmoveto
        return
      </CharString>
      <CharString index="126">
        rmoveto
        295 1 65 816 36 466 113 -466 rlineto
        return
      </CharString>
      <CharString index="127">
        hmoveto
        312 809 hlineto
        69 61 return
      </CharString>
      <CharString index="128">
        hintmask 00000000
        hintmask 11100000
        return
      </CharString>
      <CharString index="129">
        hstemhm
        115 845 return
      </CharString>
      <CharString index="130">
        hstemhm
        17 1145 return
      </CharString>
      <CharString index="131">
        hstemhm
        102 322 return
      </CharString>
      <CharString index="132">
        -464 179 return
      </CharString>
      <CharString index="133">
        45 21 -21 461 241 605 231 -16 -20 return
      </CharString>
      <CharString index="134">
        358 hstemhm
        return
      </CharString>
      <CharString index="135">
        -169 21 -21 634 245 399 244 return
      </CharString>
      <CharString index="136">
        11 callgsubr
        546 312 return
      </CharString>
      <CharString index="137">
        -754 940 796 hstem
        return
      </CharString>
      <CharString index="138">
        rmoveto
        48 44 58 58 94 hhcurveto
        return
      </CharString>
      <CharString index="139">
        794 -321 260 -213 274 return
      </CharString>
      <CharString index="140">
        rmoveto
        817 241 hlineto
        -448 -20 rlineto
        return
      </CharString>
      <CharString index="141">
        -388 21 -21 1145 -20 34 -20 return
      </CharString>
      <CharString index="142">
        344 726 rlineto
        -726 vlineto
        endchar
      </CharString>
</ttFont>
